<?xml version="1.0" standalone="no"?>
<!DOCTYPE svg PUBLIC "-//W3C//DTD SVG 20010904//EN"
 "http://www.w3.org/TR/2001/REC-SVG-20010904/DTD/svg10.dtd">
<svg version="1.0" xmlns="http://www.w3.org/2000/svg"
 width="1300.000000pt" height="902.000000pt" viewBox="0 0 1300.000000 902.000000"
 preserveAspectRatio="xMidYMid meet">

<g transform="translate(0.000000,902.000000) scale(0.100000,-0.100000)"
fill="#000000" stroke="none">
<path d="M5760 8273 c-101 -10 -439 -57 -533 -74 -109 -20 -275 -71 -422 -129
-44 -17 -188 -70 -320 -116 -337 -119 -489 -194 -680 -338 -217 -163 -349
-329 -581 -732 -53 -93 -131 -224 -173 -292 -156 -252 -214 -363 -264 -509
-85 -244 -116 -433 -124 -768 -6 -262 5 -405 52 -665 21 -118 47 -282 75 -470
18 -125 55 -235 147 -440 166 -369 251 -516 391 -676 147 -167 250 -238 583
-405 134 -67 313 -164 397 -216 84 -52 157 -91 162 -88 6 4 9 1 8 -5 -4 -18
163 -104 268 -139 170 -57 372 -88 634 -98 215 -8 329 7 608 78 128 33 280 65
336 71 l103 12 -5 46 c-4 45 -3 49 37 80 42 34 53 60 26 60 -8 0 -15 -7 -15
-15 0 -9 -9 -15 -25 -15 -32 0 -34 31 -4 61 17 17 29 20 57 15 19 -3 39 -11
44 -18 7 -11 12 -98 10 -180 -1 -33 -3 -33 218 -18 400 28 594 77 859 216 135
71 202 120 350 255 99 89 121 114 115 131 -4 15 -2 19 13 16 11 -1 49 24 98
66 44 37 107 88 141 112 61 44 243 139 364 189 237 100 392 212 445 323 54
113 58 138 59 404 1 136 -2 240 -5 230 -3 -9 -9 48 -13 128 -17 359 -74 644
-168 848 -17 37 -41 92 -55 122 -14 30 -45 97 -70 147 -24 51 -41 98 -38 103
4 6 1 9 -6 8 -6 -2 -14 3 -17 11 -3 8 0 11 7 7 6 -4 11 -2 11 3 0 6 -8 11 -17
11 -9 0 -14 3 -10 6 3 3 -8 31 -25 61 -17 31 -48 106 -68 167 -56 164 -224
582 -327 816 -44 99 -174 353 -224 438 -65 110 -182 281 -219 320 -16 18 -30
35 -30 38 0 7 -196 203 -250 250 -125 108 -314 219 -465 271 -175 60 -752 219
-910 251 -187 38 -393 51 -555 35z m630 -113 c0 -5 -7 -10 -15 -10 -8 0 -15 5
-15 10 0 6 7 10 15 10 8 0 15 -4 15 -10z m-654 -227 c-10 -10 -19 5 -10 18 6
11 8 11 12 0 2 -7 1 -15 -2 -18z m515 -76 c-1 -12 -15 -9 -19 4 -3 6 1 10 8 8
6 -3 11 -8 11 -12z m150 -30 c-1 -12 -15 -9 -19 4 -3 6 1 10 8 8 6 -3 11 -8
11 -12z m724 -43 c57 -26 155 -128 193 -200 86 -165 76 -301 -27 -354 -22 -11
-56 -20 -75 -20 -19 0 -38 -5 -42 -11 -5 -8 -10 -6 -16 5 -5 9 -14 16 -19 16
-6 0 5 -19 25 -42 57 -66 58 -136 4 -154 -13 -4 -37 -17 -54 -30 -17 -13 -37
-24 -44 -24 -7 0 -56 45 -109 100 -53 55 -102 100 -108 100 -7 0 -13 8 -13 18
0 22 -36 57 -68 67 -22 6 -23 5 -17 -17 4 -12 20 -41 35 -63 68 -99 84 -156
67 -235 -7 -32 -2 -44 52 -130 55 -86 112 -218 140 -325 11 -39 31 -79 31 -61
0 28 -44 182 -60 208 -10 17 -17 35 -14 40 3 4 0 8 -6 8 -6 0 -9 4 -6 9 3 4
-1 17 -9 27 -20 27 -18 91 4 141 34 74 90 70 166 -11 28 -30 50 -58 50 -62 0
-5 14 -45 32 -89 34 -86 65 -221 63 -270 -1 -16 -1 -43 0 -60 l1 -30 17 24 c9
13 18 40 19 60 1 20 4 53 7 74 4 22 2 37 -4 37 -5 0 -10 15 -10 33 -1 17 -10
57 -21 87 -11 30 -23 65 -26 78 -3 12 -11 22 -18 22 -8 0 -19 16 -25 35 -6 19
-16 33 -21 30 -5 -4 -9 -1 -9 4 0 6 -7 11 -15 11 -17 0 -20 16 -5 25 6 4 8 10
5 15 -3 5 -1 12 5 15 6 4 8 15 5 25 -3 11 0 20 10 24 8 3 15 13 15 22 0 31 31
54 72 54 56 0 109 -58 178 -196 30 -60 59 -112 63 -115 13 -9 21 -89 21 -204
0 -85 -5 -118 -36 -225 -59 -204 -87 -320 -99 -423 -7 -58 -20 -109 -31 -127
-37 -62 -114 -62 -156 0 -20 29 -23 43 -18 83 3 29 1 47 -5 47 -6 0 -4 7 4 15
16 16 55 201 44 211 -4 4 -16 -1 -26 -10 -31 -29 -52 -144 -58 -326 -3 -101
-11 -178 -19 -197 -22 -56 -83 -68 -129 -25 -11 10 -28 21 -39 25 -20 8 -19
22 9 117 23 79 39 315 24 352 -21 51 -33 15 -37 -105 -4 -135 -13 -162 -64
-188 l-38 -20 -25 27 c-29 31 -40 91 -31 175 5 47 4 60 -6 57 -19 -7 -27 -62
-27 -185 0 -61 -4 -129 -10 -151 -34 -123 -158 -124 -191 -2 -12 46 -10 71 22
270 17 105 19 151 14 287 -7 177 0 215 45 247 31 22 85 20 118 -3 l27 -19 -2
56 c0 32 -11 84 -23 117 -42 112 -83 200 -99 213 -24 18 -42 15 -42 -8 0 -57
-67 -112 -117 -96 -10 3 -40 47 -67 98 -55 103 -102 173 -117 173 -11 0 -65
59 -72 78 -2 7 -7 9 -11 6 -7 -7 22 -61 67 -124 32 -45 75 -133 80 -167 2 -13
2 -17 0 -10 -3 6 -9 12 -14 12 -6 0 -9 6 -8 13 0 6 -2 22 -6 35 -6 19 -13 22
-33 17 -23 -6 -24 -4 -20 29 2 19 1 33 -3 30 -10 -6 -20 26 -13 38 7 12 -24
48 -42 48 -8 0 -21 14 -30 31 -11 23 -12 29 -2 24 7 -3 4 1 -7 9 -11 9 -28 23
-38 31 -10 9 -22 13 -26 10 -5 -3 -12 2 -15 11 -5 12 -15 14 -45 9 -37 -6 -42
-4 -90 44 -37 36 -46 51 -34 51 14 0 12 4 -7 14 -19 10 -28 10 -40 1 -11 -8
-69 -11 -198 -8 -215 4 -260 8 -282 28 -23 21 -32 19 -65 -15 -16 -16 -35 -30
-42 -30 -7 0 -18 -9 -25 -20 -7 -11 -17 -20 -22 -20 -4 0 -3 7 4 15 8 9 9 15
2 15 -6 0 -14 -4 -17 -10 -3 -5 -15 -10 -26 -10 -12 0 -17 -4 -13 -11 3 -6 -1
-10 -12 -9 -11 1 -28 2 -39 1 -17 -1 -18 -3 -5 -12 12 -8 9 -9 -12 -5 -16 4
-28 2 -28 -3 0 -5 -17 0 -37 10 -21 10 -56 19 -79 19 -44 0 -64 -15 -92 -71
-11 -21 -29 -37 -50 -44 -18 -6 -30 -14 -25 -18 4 -5 0 -5 -9 -2 -9 4 -39 -6
-66 -20 -42 -22 -58 -25 -96 -20 -34 6 -52 3 -71 -9 -41 -27 -73 -67 -68 -86
3 -12 -14 -33 -54 -69 -32 -28 -62 -51 -66 -50 -5 0 -18 -10 -29 -23 -11 -13
-24 -22 -29 -20 -5 1 -9 -2 -9 -8 0 -5 -7 -10 -16 -10 -8 0 -12 -4 -9 -10 3
-5 -1 -10 -9 -10 -9 0 -16 -7 -16 -15 0 -8 -6 -14 -12 -13 -7 2 -12 -2 -11 -9
2 -8 -4 -10 -14 -6 -11 4 -14 3 -9 -5 4 -7 1 -12 -8 -12 -9 0 -16 -4 -16 -10
0 -5 -17 -12 -37 -15 -66 -11 -93 -26 -99 -54 -3 -14 -9 -35 -14 -46 -5 -11
-14 -36 -20 -57 -6 -20 -17 -39 -24 -41 -15 -6 -109 -159 -120 -194 -4 -13
-11 -23 -16 -23 -4 0 -10 -9 -13 -20 -3 -14 -14 -20 -31 -20 -18 0 -30 -7 -36
-22 -10 -26 -10 -26 -17 22 -6 42 -11 49 -23 30 -15 -24 -22 -5 -31 82 -8 84
-5 122 14 146 7 9 6 11 -7 6 -9 -3 -16 -1 -16 5 0 6 5 11 10 11 6 0 10 8 10
17 0 9 7 25 17 35 9 10 11 18 5 18 -6 0 -15 -8 -21 -17 -17 -32 -25 -3 -14 51
13 62 55 165 61 148 2 -6 -2 -20 -8 -32 -12 -22 -5 -80 10 -80 11 0 30 57 30
91 0 16 -5 29 -11 29 -12 0 -4 50 9 60 4 3 13 18 20 34 11 26 11 28 -5 22 -14
-6 -13 -2 5 17 12 13 22 28 22 34 0 6 6 16 14 23 8 6 12 18 10 25 -3 7 4 23
15 34 12 12 21 24 21 27 0 13 133 153 140 149 5 -3 11 4 15 15 3 11 15 20 26
20 10 0 19 6 19 14 0 7 12 22 28 31 15 10 39 29 54 42 51 48 64 58 103 88 54
40 67 51 115 96 23 21 47 36 53 32 6 -3 7 -1 3 5 -4 7 -1 12 8 12 9 0 16 4 16
9 0 5 10 13 22 17 12 3 28 12 34 19 28 27 181 63 384 90 187 25 287 18 447
-31 71 -21 130 -45 350 -145 23 -10 45 -19 49 -19 7 0 163 -98 174 -110 3 -3
14 -12 25 -20 20 -14 20 -14 1 7 -23 28 -17 100 10 120 22 16 78 17 106 2 11
-6 22 -8 25 -5 3 3 -8 12 -26 19 -17 7 -28 17 -24 22 5 4 0 5 -9 2 -10 -3 -17
-2 -15 4 2 11 -25 28 -115 69 -95 44 -114 46 -122 15 -4 -14 -11 -25 -16 -25
-5 0 -2 16 7 35 9 20 22 34 28 31 7 -2 9 8 7 28 -5 46 24 78 70 78 48 0 139
-27 210 -63 63 -32 83 -37 52 -14 -17 13 -18 14 -1 15 10 0 20 7 23 15 4 8 14
15 23 16 10 0 11 2 4 6 -17 6 -17 34 -1 31 7 -2 14 7 16 18 8 51 77 73 125 41
13 -8 36 -12 53 -10 20 3 36 -1 47 -11 20 -20 38 -21 31 -1 -4 10 0 15 10 15
10 0 21 13 27 29 10 30 45 51 82 51 34 0 79 -32 137 -99 29 -33 56 -61 60 -61
4 0 15 26 25 58 10 31 25 65 34 76 41 48 120 56 196 20z m-1295 1 c0 -8 -4
-15 -10 -15 -5 0 -10 7 -10 15 0 8 5 15 10 15 6 0 10 -7 10 -15z m105 -114 c3
-5 2 -12 -3 -15 -12 -7 -52 4 -52 15 0 12 47 12 55 0z m-1735 -61 c0 -5 -4
-10 -10 -10 -5 0 -10 5 -10 10 0 6 5 10 10 10 6 0 10 -4 10 -10z m1647 -162
c-3 -8 -6 -5 -6 6 -1 11 2 17 5 13 3 -3 4 -12 1 -19z m-1372 -58 c-3 -5 -12
-10 -18 -10 -7 0 -6 4 3 10 19 12 23 12 15 0z m3195 -115 c0 -8 -7 -15 -15
-15 -8 0 -15 7 -15 15 0 8 7 15 15 15 8 0 15 -7 15 -15z m-4010 -285 c0 -5 -4
-10 -10 -10 -5 0 -10 5 -10 10 0 6 5 10 10 10 6 0 10 -4 10 -10z m2650 -70 c0
-5 -5 -10 -11 -10 -5 0 -7 5 -4 10 3 6 8 10 11 10 2 0 4 -4 4 -10z m1210 -70
c0 -5 -4 -10 -10 -10 -5 0 -10 5 -10 10 0 6 5 10 10 10 6 0 10 -4 10 -10z
m-1070 -44 c0 -3 -4 -8 -10 -11 -5 -3 -10 -1 -10 4 0 6 5 11 10 11 6 0 10 -2
10 -4z m-2919 -99 c-13 -13 -26 -3 -16 12 3 6 11 8 17 5 6 -4 6 -10 -1 -17z
m4409 2 c0 -5 -7 -9 -15 -9 -15 0 -20 12 -9 23 8 8 24 -1 24 -14z m380 0 c0
-5 -4 -9 -10 -9 -5 0 -10 7 -10 16 0 8 5 12 10 9 6 -3 10 -10 10 -16z m-62 0
c-2 -6 -8 -10 -13 -10 -5 0 -11 4 -13 10 -2 6 4 11 13 11 9 0 15 -5 13 -11z
m-2873 -79 c53 -7 111 -20 140 -34 60 -27 155 -118 185 -176 25 -50 50 -171
49 -243 0 -64 -44 -184 -82 -227 -15 -17 -25 -36 -21 -42 5 -7 3 -8 -5 -4 -8
5 -26 -7 -48 -34 -36 -42 -135 -121 -156 -124 -7 -1 -19 -6 -27 -11 -81 -53
-278 -90 -359 -68 -23 6 -23 7 -5 14 10 4 -4 5 -33 2 -41 -4 -60 -1 -93 16
-22 11 -49 21 -58 21 -10 0 -44 16 -76 35 -32 19 -63 32 -70 28 -6 -3 -8 -3
-4 1 3 4 -16 27 -44 49 -83 68 -93 87 -92 170 1 53 9 91 29 142 15 39 27 78
27 88 0 10 4 15 10 11 8 -5 9 -1 5 10 -6 14 -3 17 9 12 12 -5 14 -1 8 16 -5
16 -3 20 9 15 11 -4 13 0 10 13 -3 12 5 29 23 46 16 15 23 24 17 20 -7 -4 -13
-2 -13 3 0 6 4 11 10 11 5 0 16 14 25 30 9 17 22 30 29 30 8 0 16 4 18 8 6 14
100 62 122 62 18 0 19 2 6 11 -12 9 -11 10 8 6 12 -3 22 -1 22 4 0 5 8 9 18 9
9 0 30 7 46 15 16 9 37 13 45 10 8 -3 12 -3 8 1 -10 10 24 33 51 34 12 0 22 4
22 9 0 22 100 26 235 11z m3035 -61 c0 -5 -7 -9 -15 -9 -15 0 -20 12 -9 23 8
8 24 -1 24 -14z m-1923 -18 c31 -33 72 -156 82 -244 13 -113 -5 -248 -58 -438
-39 -139 -96 -293 -88 -237 3 21 0 26 -15 23 -10 -2 -18 1 -18 6 0 6 -5 7 -10
4 -6 -4 -8 -16 -5 -28 5 -17 4 -18 -4 -8 -8 13 -13 11 -29 -10 -15 -17 -17
-26 -9 -32 8 -5 4 -7 -8 -5 -14 2 -20 -3 -20 -17 0 -11 -4 -26 -9 -34 -5 -8
-4 -16 5 -22 10 -6 10 -9 2 -9 -7 0 -17 9 -24 21 -8 16 -14 18 -22 10 -9 -9
-8 -14 3 -21 12 -8 10 -9 -9 -8 -13 2 -26 -3 -28 -10 -3 -8 2 -10 14 -6 14 5
15 4 4 -4 -8 -6 -19 -8 -25 -6 -21 8 -79 -65 -81 -101 0 -19 2 -32 5 -30 3 2
12 0 20 -6 11 -6 11 -9 3 -10 -7 -1 -17 -3 -23 -4 -5 -1 -17 -3 -26 -4 -13 -1
-14 -4 -4 -16 16 -19 3 -37 -23 -33 -15 2 -21 -2 -20 -12 2 -16 -59 -60 -82
-60 -9 0 -12 -6 -9 -15 5 -11 16 -13 43 -9 20 3 48 1 63 -5 33 -13 68 -65 68
-103 0 -20 4 -26 15 -22 12 5 15 26 15 105 l0 99 40 0 40 0 0 -71 0 -71 35 31
c20 17 43 31 52 31 10 0 67 52 129 115 110 114 112 115 157 115 37 0 49 -5 66
-26 12 -15 21 -39 21 -55 0 -27 -38 -121 -51 -127 -4 -2 -2 -16 4 -32 l11 -28
24 19 c14 10 35 19 47 19 44 0 50 -23 53 -192 l4 -158 -41 0 -41 0 0 48 -1 47
-19 -39 c-17 -34 -18 -41 -5 -59 21 -30 18 -65 -10 -122 -13 -27 -25 -46 -25
-42 0 7 -11 0 -48 -33 -10 -8 -31 -20 -47 -26 -17 -6 -29 -15 -28 -21 1 -6 -6
-9 -17 -6 -15 4 -18 1 -13 -16 3 -12 1 -21 -6 -21 -6 0 -11 5 -11 10 0 6 -4
10 -10 10 -5 0 -10 -7 -10 -15 0 -17 -16 -21 -22 -5 -2 6 -40 -1 -93 -18 -50
-16 -118 -35 -152 -42 -41 -8 -60 -16 -56 -24 4 -6 -5 -3 -21 7 -18 12 -31 15
-39 9 -7 -5 -28 -13 -47 -16 -19 -4 -55 -11 -80 -16 -25 -5 -79 -14 -120 -21
-115 -17 -182 -30 -177 -35 6 -7 202 15 326 36 86 15 123 18 151 10 68 -18 94
-73 61 -127 -25 -40 -51 -53 -175 -88 -92 -26 -107 -28 -229 -22 -72 3 -125 2
-118 -2 8 -5 -3 -11 -31 -15 -152 -26 -217 -45 -211 -63 7 -19 72 -16 145 7
104 33 148 35 202 12 35 -16 50 -30 62 -58 14 -33 14 -39 -6 -75 -24 -47 -46
-70 -80 -86 -49 -24 -136 -41 -220 -45 -47 -3 -75 -3 -62 -1 12 3 22 9 22 14
0 6 -8 8 -17 5 -10 -2 -54 -7 -98 -11 -44 -4 -108 -15 -143 -25 -48 -15 -73
-17 -108 -11 -36 7 -44 6 -40 -5 8 -20 -18 -6 -33 18 -8 13 -10 23 -4 25 6 2
2 21 -10 43 -24 50 -17 83 25 122 17 16 25 28 18 26 -8 -2 -14 2 -15 9 0 6 -3
15 -7 19 -4 4 -3 13 3 21 9 10 4 13 -24 13 -63 0 -110 69 -88 130 11 33 6 59
-13 61 -6 1 0 5 14 9 16 5 2 6 -35 3 -33 -3 -64 -9 -70 -13 -23 -16 -124 -31
-143 -21 -11 6 -23 7 -27 3 -5 -4 -5 -1 -1 6 4 6 3 12 -3 12 -6 0 -10 34 -9
87 0 85 1 88 33 120 30 30 38 33 97 33 34 0 80 -4 100 -9 22 -5 36 -5 32 0 -9
14 6 10 22 -6 11 -10 35 -15 77 -15 74 1 234 33 250 50 14 15 -32 7 -103 -17
-25 -9 -78 -18 -117 -21 -89 -6 -119 9 -125 62 -2 19 -1 33 3 30 4 -2 7 12 6
31 -1 39 21 69 73 95 55 28 133 40 321 50 146 7 196 15 309 43 170 43 297 93
306 119 3 11 28 35 55 55 35 25 49 42 49 59 0 29 -29 33 -37 5 -3 -12 -17 -21
-40 -26 -19 -3 -37 -4 -39 -2 -10 10 -6 79 4 89 16 16 15 25 -2 31 -10 4 -12
0 -8 -16 5 -19 3 -20 -10 -10 -17 14 -28 8 -28 -16 0 -14 2 -14 10 -1 5 8 12
11 15 8 16 -16 -8 -25 -55 -20 -46 4 -50 3 -50 -17 0 -11 -5 -21 -11 -21 -6 0
-8 7 -5 15 3 8 9 22 12 30 8 20 -20 20 -36 0 -20 -24 -23 -10 -5 19 10 14 24
26 31 26 15 0 16 6 6 33 -8 20 -9 19 -66 -46 -26 -30 -92 -52 -111 -38 -5 5
-23 8 -40 6 -51 -3 -259 -67 -280 -85 -28 -25 -112 -25 -169 0 -32 13 -98 24
-218 34 -95 9 -190 19 -210 22 -24 4 -38 3 -38 -4 0 -6 -13 -13 -30 -17 -33
-7 -85 13 -140 56 -19 15 -93 58 -165 95 -71 37 -145 77 -164 90 -21 14 -39
20 -45 15 -6 -5 -20 -5 -32 -1 -26 10 -84 68 -84 84 0 7 -23 41 -51 77 -28 35
-56 73 -62 86 -5 12 -18 25 -29 29 -10 3 -27 23 -38 44 -24 47 -25 57 -5 57 8
0 15 -4 15 -9 0 -4 5 -7 11 -6 6 2 18 -10 28 -27 9 -16 47 -61 83 -100 37 -38
68 -76 68 -83 0 -24 107 -122 133 -122 13 0 42 -12 63 -28 21 -15 66 -39 99
-54 122 -55 211 -99 250 -123 44 -27 91 -32 118 -11 14 11 28 11 82 0 36 -8
123 -18 194 -24 70 -5 141 -14 157 -20 61 -24 116 -16 195 27 94 52 211 75
251 49 22 -14 29 -15 76 -1 36 11 59 26 77 49 16 21 60 51 116 81 80 41 95 46
117 36 20 -9 29 -8 49 4 33 22 82 77 83 92 0 7 21 36 46 65 26 29 58 67 73 83
14 17 45 56 69 88 24 32 54 63 67 69 26 12 43 47 81 173 39 127 43 303 9 420
-53 182 -56 198 -38 217 21 23 48 23 70 -1z m-2380 -163 c-3 -8 -6 -5 -6 6 -1
11 2 17 5 13 3 -3 4 -12 1 -19z m3920 1 c8 -7 13 -32 13 -65 l0 -54 39 0 c127
0 205 -120 160 -248 -14 -39 -67 -59 -126 -46 -21 4 -47 7 -58 7 -11 -1 -14 1
-7 3 6 3 9 10 6 15 -3 6 -12 5 -22 -3 -12 -10 -16 -10 -19 0 -3 6 -9 10 -14 7
-11 -8 -49 54 -49 80 0 17 -2 17 -10 5 -7 -11 -10 -7 -11 20 -1 19 -1 41 0 48
1 8 -5 22 -14 32 -25 28 -4 86 41 112 35 20 47 58 19 58 -8 0 -15 -7 -15 -15
0 -9 -9 -15 -25 -15 -20 0 -25 5 -25 24 0 48 74 70 117 35z m-4457 -29 c0 -5
-4 -10 -10 -10 -5 0 -10 5 -10 10 0 6 5 10 10 10 6 0 10 -4 10 -10z m-355 -50
c-3 -5 -10 -10 -16 -10 -5 0 -9 5 -9 10 0 6 7 10 16 10 8 0 12 -4 9 -10z
m4515 -131 c0 -5 -7 -9 -15 -9 -15 0 -20 12 -9 23 8 8 24 -1 24 -14z m70 -114
c0 -8 -4 -15 -9 -15 -13 0 -22 16 -14 24 11 11 23 6 23 -9z m-3920 -61 c0 -41
-4 -54 -15 -54 -13 0 -22 30 -26 85 -2 31 0 33 21 28 17 -5 20 -14 20 -59z
m-450 -74 c0 -5 -7 -10 -15 -10 -8 0 -15 5 -15 10 0 6 7 10 15 10 8 0 15 -4
15 -10z m4640 -85 c0 -8 -4 -15 -9 -15 -13 0 -22 16 -14 24 11 11 23 6 23 -9z
m-4432 -123 c2 -7 -3 -12 -12 -12 -9 0 -16 7 -16 16 0 17 22 14 28 -4z m4900
7 c-2 -6 -8 -10 -13 -10 -5 0 -11 4 -13 10 -2 6 4 11 13 11 9 0 15 -5 13 -11z
m-196 -105 c52 -36 67 -75 41 -102 -25 -27 -57 -42 -90 -43 -15 -1 -43 -8 -61
-16 -40 -17 -77 -10 -116 22 -24 19 -30 31 -29 60 3 101 156 149 255 79z
m-4684 5 c-2 -6 -8 -10 -13 -10 -5 0 -11 4 -13 10 -2 6 4 11 13 11 9 0 15 -5
13 -11z m5132 1 c0 -5 -5 -10 -11 -10 -5 0 -7 5 -4 10 3 6 8 10 11 10 2 0 4
-4 4 -10z m-5950 -85 c0 -8 -4 -15 -10 -15 -5 0 -10 7 -10 15 0 8 5 15 10 15
6 0 10 -7 10 -15z m4750 0 c0 -8 -4 -15 -9 -15 -13 0 -22 16 -14 24 11 11 23
6 23 -9z m-1270 -65 c0 -5 -2 -10 -4 -10 -3 0 -8 5 -11 10 -3 6 -1 10 4 10 6
0 11 -4 11 -10z m1960 -30 c0 -5 -4 -10 -10 -10 -5 0 -10 5 -10 10 0 6 5 10
10 10 6 0 10 -4 10 -10z m-2051 -22 c13 -21 13 -22 -1 -10 -20 16 -48 5 -48
-18 0 -23 -18 -36 -31 -23 -14 14 -3 36 29 55 36 21 35 21 51 -4z m881 7 c0
-8 -4 -15 -9 -15 -5 0 -11 7 -15 15 -3 9 0 15 9 15 8 0 15 -7 15 -15z m955 5
c3 -5 -1 -10 -9 -10 -9 0 -16 5 -16 10 0 6 4 10 9 10 6 0 13 -4 16 -10z
m-5075 -20 c0 -5 -7 -10 -15 -10 -8 0 -15 5 -15 10 0 6 7 10 15 10 8 0 15 -4
15 -10z m-200 -10 c0 -5 -7 -10 -15 -10 -8 0 -15 5 -15 10 0 6 7 10 15 10 8 0
15 -4 15 -10z m970 -66 c0 -8 -4 -12 -10 -9 -5 3 -10 10 -10 16 0 5 5 9 10 9
6 0 10 -7 10 -16z m4192 1 c0 -5 -5 -11 -11 -13 -6 -2 -11 4 -11 13 0 9 5 15
11 13 6 -2 11 -8 11 -13z m-800 -10 c0 -5 -5 -11 -11 -13 -6 -2 -11 4 -11 13
0 9 5 15 11 13 6 -2 11 -8 11 -13z m1085 -21 c-9 -9 -28 6 -21 18 4 6 10 6 17
-1 6 -6 8 -13 4 -17z m-4387 -4 c0 -5 -4 -10 -10 -10 -5 0 -10 5 -10 10 0 6 5
10 10 10 6 0 10 -4 10 -10z m4510 -28 c0 -13 -12 -22 -22 -16 -10 6 -1 24 13
24 5 0 9 -4 9 -8z m-2260 -37 c-7 -9 -15 -13 -19 -10 -3 3 1 10 9 15 21 14 24
12 10 -5z m827 -31 c-9 -9 -28 6 -21 18 4 6 10 6 17 -1 6 -6 8 -13 4 -17z
m-3775 -19 c0 -5 -5 -11 -11 -13 -6 -2 -11 4 -11 13 0 9 5 15 11 13 6 -2 11
-8 11 -13z m518 0 c0 -8 -4 -15 -10 -15 -5 0 -10 7 -10 15 0 8 5 15 10 15 6 0
10 -7 10 -15z m-124 -43 c33 -18 95 -91 115 -137 19 -43 23 -65 60 -365 26
-209 20 -262 -37 -328 -61 -72 -102 -88 -211 -84 -55 2 -110 50 -147 127 -23
46 -29 77 -41 227 -8 95 -17 184 -19 198 -9 52 13 228 33 268 26 52 76 101
109 108 15 3 31 7 37 8 16 4 78 -10 101 -22z m3364 -122 c0 -133 1 -140 20
-140 19 0 20 7 20 140 l0 140 40 0 40 0 0 -189 c0 -113 -4 -201 -11 -220 -14
-39 -41 -51 -115 -51 l-54 0 0 34 c0 34 1 35 48 38 l47 3 3 40 c3 39 3 40 -13
18 -19 -27 -59 -30 -83 -6 -14 14 -18 43 -21 175 l-3 158 41 0 41 0 0 -140z
m-3910 115 c0 -8 -4 -15 -10 -15 -5 0 -10 7 -10 15 0 8 5 15 10 15 6 0 10 -7
10 -15z m5384 -52 c26 -19 51 -50 71 -88 l30 -59 -1 -277 -1 -278 -25 -39
c-15 -22 -46 -49 -70 -62 -43 -23 -172 -44 -161 -27 3 5 -8 6 -27 2 -25 -5
-31 -4 -25 6 6 9 2 11 -13 7 -30 -8 -53 12 -84 73 -46 94 -51 126 -45 286 10
272 68 410 201 478 42 21 100 13 150 -22z m-2784 17 c0 -5 -5 -10 -11 -10 -5
0 -7 5 -4 10 3 6 8 10 11 10 2 0 4 -4 4 -10z m-1830 -75 c0 -8 -4 -15 -10 -15
-5 0 -10 7 -10 15 0 8 5 15 10 15 6 0 10 -7 10 -15z m3588 -96 c-2 -6 -8 -10
-13 -10 -5 0 -11 4 -13 10 -2 6 4 11 13 11 9 0 15 -5 13 -11z m1243 -72 c-1
-12 -15 -9 -19 4 -3 6 1 10 8 8 6 -3 11 -8 11 -12z m-3941 -47 c0 -5 -4 -10
-10 -10 -5 0 -10 5 -10 10 0 6 5 10 10 10 6 0 10 -4 10 -10z m3370 -20 c0 -5
-11 -10 -25 -10 -14 0 -25 5 -25 10 0 6 11 10 25 10 14 0 25 -4 25 -10z
m-5295 -60 c3 -5 1 -10 -4 -10 -6 0 -11 5 -11 10 0 6 2 10 4 10 3 0 8 -4 11
-10z m1345 -15 c0 -8 -4 -15 -10 -15 -5 0 -10 7 -10 15 0 8 5 15 10 15 6 0 10
-7 10 -15z m-1330 -45 c0 -5 -4 -10 -10 -10 -5 0 -10 5 -10 10 0 6 5 10 10 10
6 0 10 -4 10 -10z m1410 0 c0 -5 -4 -10 -10 -10 -5 0 -10 5 -10 10 0 6 5 10
10 10 6 0 10 -4 10 -10z m3308 -59 c94 -38 123 -197 64 -356 -29 -78 -111
-240 -112 -220 0 6 -8 -4 -16 -22 -22 -44 -119 -141 -136 -135 -5 1 -8 -2 -8
-7 0 -5 -10 -7 -22 -3 -12 3 -19 1 -15 -5 7 -11 -104 2 -131 16 -9 4 -24 6
-32 3 -8 -2 -12 -1 -8 3 4 4 -3 16 -17 26 -13 11 -29 36 -36 56 -21 64 -6 134
60 272 33 69 70 151 81 181 41 106 100 167 192 195 57 18 85 17 136 -4z m542
-146 c0 -8 -4 -15 -10 -15 -5 0 -10 7 -10 15 0 8 5 15 10 15 6 0 10 -7 10 -15z
m745 -24 c7 -12 -12 -24 -25 -16 -11 7 -4 25 10 25 5 0 11 -4 15 -9z m-5593
-13 c-9 -9 -15 -9 -24 0 -9 9 -7 12 12 12 19 0 21 -3 12 -12z m4758 2 c0 -5
-5 -10 -11 -10 -5 0 -7 5 -4 10 3 6 8 10 11 10 2 0 4 -4 4 -10z m741 -35 c-1
-15 -24 -12 -29 3 -3 9 2 13 12 10 10 -1 17 -7 17 -13z m-4891 -5 c0 -5 -7
-10 -16 -10 -8 0 -12 5 -9 10 3 6 10 10 16 10 5 0 9 -4 9 -10z m2968 -1 c-2
-6 -8 -10 -13 -10 -5 0 -11 4 -13 10 -2 6 4 11 13 11 9 0 15 -5 13 -11z m1142
-14 c0 -8 -4 -15 -9 -15 -13 0 -22 16 -14 24 11 11 23 6 23 -9z m-4772 -17
c-6 -18 -28 -21 -28 -4 0 9 7 16 16 16 9 0 14 -5 12 -12z m-238 -16 c0 -13
-12 -22 -22 -16 -10 6 -1 24 13 24 5 0 9 -4 9 -8z m6230 -32 c0 -5 -2 -10 -4
-10 -3 0 -8 5 -11 10 -3 6 -1 10 4 10 6 0 11 -4 11 -10z m-90 -21 c0 -5 -7 -9
-15 -9 -9 0 -12 6 -9 15 6 15 24 11 24 -6z m-2453 -15 c-9 -9 -28 6 -21 18 4
6 10 6 17 -1 6 -6 8 -13 4 -17z m-2117 1 c0 -8 -4 -15 -10 -15 -5 0 -10 7 -10
15 0 8 5 15 10 15 6 0 10 -7 10 -15z m-95 -106 c84 -63 126 -88 140 -85 27 7
55 -11 37 -22 -9 -6 -7 -13 9 -28 16 -14 23 -15 26 -6 3 6 9 9 15 6 7 -4 6 -9
-2 -14 -11 -7 30 -44 93 -85 9 -5 17 -21 19 -35 3 -22 -1 -25 -24 -23 -16 1
-28 -2 -28 -8 0 -5 -7 -9 -15 -9 -8 0 -15 -9 -15 -20 0 -19 -15 -28 -22 -12
-5 11 -355 272 -375 279 -12 4 -15 3 -8 -4 27 -27 411 -306 421 -306 7 0 10
-6 7 -14 -4 -10 -9 -11 -19 -2 -10 8 -14 8 -14 0 0 -6 -11 -13 -24 -17 -20 -5
-62 22 -243 156 -120 90 -222 167 -228 172 -7 6 -4 14 7 22 13 10 14 16 6 24
-20 20 -1 24 26 7 16 -11 26 -13 26 -6 0 6 -7 14 -15 17 -19 8 -20 54 -1 54 8
0 22 9 30 21 8 12 19 18 25 14 6 -3 11 -1 11 4 0 19 13 11 135 -80z m-1163 36
c0 -5 -5 -11 -11 -13 -6 -2 -11 4 -11 13 0 9 5 15 11 13 6 -2 11 -8 11 -13z
m-152 -36 c0 -5 -7 -9 -15 -9 -15 0 -20 12 -9 23 8 8 24 -1 24 -14z m1960 -45
c0 -8 4 -14 9 -14 10 0 24 -30 17 -37 -2 -2 -17 9 -33 24 -21 21 -26 32 -19
40 13 13 26 7 26 -13z m1985 6 c3 -5 1 -10 -4 -10 -6 0 -11 5 -11 10 0 6 2 10
4 10 3 0 8 -4 11 -10z m1356 -35 c52 -17 119 -105 119 -157 -1 -30 -30 -67
-58 -73 -27 -5 -82 -37 -77 -44 7 -12 -106 -12 -146 1 -46 13 -105 65 -120
106 -7 18 -6 40 2 72 17 65 75 103 168 108 37 2 71 8 76 14 6 6 11 4 13 -6 2
-8 12 -18 23 -21z m459 25 c0 -5 -4 -10 -9 -10 -6 0 -13 5 -16 10 -3 6 1 10 9
10 9 0 16 -4 16 -10z m-4880 -10 c0 -5 -4 -10 -10 -10 -5 0 -10 5 -10 10 0 6
5 10 10 10 6 0 10 -4 10 -10z m5240 -70 c0 -5 -7 -10 -15 -10 -8 0 -15 5 -15
10 0 6 7 10 15 10 8 0 15 -4 15 -10z m-130 -4 c0 -3 -4 -8 -10 -11 -5 -3 -10
-1 -10 4 0 6 5 11 10 11 6 0 10 -2 10 -4z m70 -6 c0 -5 -4 -10 -10 -10 -5 0
-10 5 -10 10 0 6 5 10 10 10 6 0 10 -4 10 -10z m-1080 -34 c0 -3 -4 -8 -10
-11 -5 -3 -10 -1 -10 4 0 6 5 11 10 11 6 0 10 -2 10 -4z m-1533 -57 c18 -11
42 -34 54 -51 19 -26 21 -39 17 -99 -6 -81 -12 -79 106 -23 39 19 79 34 89 34
31 0 77 -30 97 -63 22 -35 27 -102 8 -113 -8 -5 -9 -1 -5 12 5 14 2 12 -12 -6
-15 -18 -17 -27 -8 -33 8 -6 5 -7 -7 -3 -14 5 -17 2 -12 -9 3 -9 2 -14 -3 -11
-5 3 -36 -14 -69 -38 -33 -25 -77 -54 -99 -66 -25 -13 -29 -18 -13 -14 65 17
121 44 169 82 50 39 57 42 117 42 38 0 77 -6 94 -15 43 -22 110 -121 110 -162
0 -41 -26 -84 -46 -76 -8 3 -14 1 -14 -4 0 -20 -107 -63 -153 -61 -38 2 -42 4
-28 15 14 10 13 11 -8 6 -16 -4 -22 -3 -17 5 8 13 -51 6 -109 -14 -22 -7 -51
-15 -65 -17 -14 -2 18 -4 71 -5 52 0 107 -6 121 -13 33 -15 53 -60 53 -121 0
-61 -29 -93 -100 -109 -46 -10 -60 -9 -121 11 -38 12 -78 30 -89 40 -11 9 -36
17 -55 18 l-35 2 32 -14 c40 -18 57 -49 49 -90 -4 -17 -7 -36 -8 -43 -1 -7 -5
-10 -10 -7 -4 3 -8 0 -8 -6 0 -9 -41 -10 -158 -5 -137 6 -165 5 -214 -11 -32
-9 -55 -21 -52 -26 3 -4 -3 -5 -12 -1 -13 5 -15 3 -9 -7 5 -9 4 -11 -4 -6 -24
15 -188 -124 -175 -147 4 -7 3 -9 -1 -4 -5 4 -15 -7 -22 -24 -7 -17 -17 -28
-23 -24 -6 3 -7 0 -4 -9 3 -9 1 -16 -5 -16 -6 0 -20 -9 -31 -20 -27 -27 -121
-26 -104 1 3 5 -2 9 -10 9 -12 0 -16 10 -16 39 0 53 15 89 53 130 50 52 96 77
218 117 63 20 166 61 229 89 63 29 134 58 158 64 23 7 42 14 42 18 0 3 -46 2
-102 -2 -176 -12 -289 -51 -407 -138 -80 -59 -302 -278 -294 -290 3 -6 1 -7
-5 -3 -11 6 -17 -13 -13 -37 1 -5 -3 -6 -9 -2 -5 3 -10 2 -10 -4 0 -16 -57
-64 -82 -68 -40 -6 -118 -2 -144 7 -52 20 -55 117 -6 162 15 14 48 39 74 57
26 17 50 37 54 44 6 9 5 9 -7 0 -8 -6 -53 -26 -100 -43 -99 -36 -129 -59 -129
-100 0 -32 -48 -79 -83 -81 -80 -4 -143 20 -159 60 -12 32 -2 100 22 154 36
81 64 100 210 149 47 15 72 26 55 23 -16 -2 -61 -9 -98 -16 -37 -6 -75 -8 -83
-5 -8 3 -12 1 -9 -4 3 -6 -10 -8 -35 -6 -32 3 -38 1 -30 -10 19 -22 -52 -5
-77 19 -16 14 -23 32 -23 59 0 79 55 133 146 144 27 3 70 14 95 25 35 14 92
21 235 29 362 20 456 37 620 115 77 36 206 113 224 134 3 3 36 32 73 65 37 32
66 61 63 63 -3 3 -19 -6 -37 -21 -45 -38 -179 -115 -284 -163 -317 -144 -767
-224 -927 -164 -31 12 -62 28 -68 36 -15 18 -31 20 -27 3 3 -17 -48 -15 -95 5
-52 22 -74 58 -58 96 6 16 21 38 32 48 28 25 95 24 133 -4 24 -16 35 -19 49
-11 10 6 55 13 100 15 l82 6 -4 34 c-3 22 1 40 13 53 20 22 72 42 79 31 7 -11
181 -25 316 -25 101 0 120 3 160 23 78 41 151 110 176 168 13 30 24 56 24 60
0 3 -19 -12 -43 -34 -42 -39 -101 -64 -179 -78 -21 -3 -75 -24 -120 -45 -46
-22 -104 -44 -130 -49 -48 -8 -136 2 -170 20 -14 8 -18 6 -18 -8 0 -15 -2 -16
-10 -3 -5 8 -10 34 -10 57 0 33 7 50 28 74 26 29 35 32 103 36 53 4 89 13 129
33 30 15 66 30 80 35 14 4 52 20 85 35 87 42 94 43 160 41 80 -3 94 -8 101
-37 5 -18 10 -22 17 -15 6 6 29 11 52 11 22 0 49 7 59 15 11 8 31 15 44 15 14
0 44 16 68 35 73 60 105 64 171 24z m-2212 -2 c-11 -8 -48 -29 -82 -47 -40
-22 -58 -37 -50 -42 7 -4 8 -8 1 -8 -5 0 -19 -7 -30 -15 -10 -8 16 1 60 21
191 87 211 74 32 -21 -65 -34 -122 -68 -127 -76 -7 -11 -9 -10 -9 4 0 9 -5 17
-11 17 -6 0 -9 7 -6 15 5 11 0 13 -23 9 -27 -6 -29 -4 -26 21 3 23 14 33 86
66 45 21 86 36 91 33 5 -2 28 4 51 15 49 23 72 27 43 8z m5 -22 c0 -6 -117
-65 -127 -65 -4 1 21 16 57 35 72 38 70 37 70 30z m-1252 -37 c-6 -18 -28 -21
-28 -4 0 9 7 16 16 16 9 0 14 -5 12 -12z m1652 -42 c0 -3 -4 -8 -10 -11 -5 -3
-10 -1 -10 4 0 6 5 11 10 11 6 0 10 -2 10 -4z m-1186 -27 c-3 -5 -10 -7 -15
-3 -5 3 -7 10 -3 15 3 5 10 7 15 3 5 -3 7 -10 3 -15z m811 2 c-16 -15 -125
-71 -178 -92 -91 -36 -61 -10 53 46 107 52 146 67 125 46z m3730 -31 c10 -8
15 -41 17 -116 3 -101 2 -104 -19 -104 -12 0 -24 4 -27 9 -4 5 -16 4 -29 -2
l-24 -11 34 -44 c30 -40 39 -70 33 -112 -3 -27 -49 -77 -75 -84 -14 -4 -25
-11 -25 -16 0 -6 -9 -10 -19 -10 -11 0 -23 -4 -26 -10 -3 -5 -33 -10 -66 -10
-75 0 -125 24 -175 86 -32 39 -39 43 -44 28 -6 -15 -8 -13 -12 11 -7 37 2 96
13 89 5 -3 6 2 3 10 -8 22 65 89 113 104 55 16 126 15 170 -3 19 -8 37 -15 39
-15 2 0 4 18 4 39 0 34 6 44 40 71 41 32 52 60 25 60 -8 0 -15 -7 -15 -15 0
-9 -9 -15 -25 -15 -30 0 -34 27 -10 64 14 21 20 23 51 16 19 -4 41 -13 49 -20z
m-3000 6 c15 -11 19 -31 23 -119 l5 -106 -59 1 c-68 1 -84 10 -84 47 0 48 12
70 46 90 19 11 34 27 34 36 0 19 -19 20 -26 0 -4 -8 -17 -15 -30 -15 -19 0
-24 5 -24 25 0 14 6 32 13 40 15 18 78 19 102 1z m2720 -16 c3 -5 -1 -10 -9
-10 -9 0 -16 5 -16 10 0 6 4 10 9 10 6 0 13 -4 16 -10z m1425 -9 c0 -14 -18
-23 -30 -16 -6 4 -8 11 -5 16 8 12 35 12 35 0z m-230 -35 c0 -3 -4 -8 -10 -11
-5 -3 -10 -1 -10 4 0 6 5 11 10 11 6 0 10 -2 10 -4z m-5040 -36 c0 -5 -2 -10
-4 -10 -3 0 -8 5 -11 10 -3 6 -1 10 4 10 6 0 11 -4 11 -10z m-299 -43 c-1 -12
-15 -9 -19 4 -3 6 1 10 8 8 6 -3 11 -8 11 -12z m4249 3 c0 -5 -4 -10 -10 -10
-5 0 -10 5 -10 10 0 6 5 10 10 10 6 0 10 -4 10 -10z m-3950 -10 c0 -5 -4 -10
-9 -10 -6 0 -13 5 -16 10 -3 6 1 10 9 10 9 0 16 -4 16 -10z m3790 -4 c0 -2 -7
-6 -15 -10 -8 -3 -15 -1 -15 4 0 6 7 10 15 10 8 0 15 -2 15 -4z m-3830 -36 c0
-5 -7 -10 -15 -10 -8 0 -15 5 -15 10 0 6 7 10 15 10 8 0 15 -4 15 -10z m281
-13 c-1 -12 -15 -9 -19 4 -3 6 1 10 8 8 6 -3 11 -8 11 -12z m10 -70 c-1 -12
-15 -9 -19 4 -3 6 1 10 8 8 6 -3 11 -8 11 -12z m299 3 c0 -5 -2 -10 -4 -10 -3
0 -8 5 -11 10 -3 6 -1 10 4 10 6 0 11 -4 11 -10z m-15 -73 c96 -54 99 -203 5
-262 -67 -42 -182 -43 -226 0 -53 51 -42 159 24 229 55 58 130 71 197 33z
m4045 -58 c0 -5 -7 -9 -15 -9 -15 0 -20 12 -9 23 8 8 24 -1 24 -14z m-883 -31
c-3 -8 -6 -5 -6 6 -1 11 2 17 5 13 3 -3 4 -12 1 -19z m1243 -8 c0 -5 -5 -10
-11 -10 -5 0 -7 5 -4 10 3 6 8 10 11 10 2 0 4 -4 4 -10z m-4853 -26 c-9 -9
-28 6 -21 18 4 6 10 6 17 -1 6 -6 8 -13 4 -17z m794 -17 c-13 -13 -26 -3 -16
12 3 6 11 8 17 5 6 -4 6 -10 -1 -17z m-686 3 c3 -5 1 -10 -4 -10 -6 0 -11 5
-11 10 0 6 2 10 4 10 3 0 8 -4 11 -10z m4605 -20 c0 -5 -4 -10 -10 -10 -5 0
-10 5 -10 10 0 6 5 10 10 10 6 0 10 -4 10 -10z m-5250 -20 c0 -5 -3 -10 -7
-10 -5 0 -18 -3 -30 -6 -13 -4 -23 -2 -23 4 0 9 9 13 53 21 4 0 7 -3 7 -9z
m1187 -116 c-9 -9 -28 6 -21 18 4 6 10 6 17 -1 6 -6 8 -13 4 -17z m3033 -84
c0 -5 -7 -10 -15 -10 -8 0 -15 5 -15 10 0 6 7 10 15 10 8 0 15 -4 15 -10z
m-580 -10 c0 -5 -7 -10 -15 -10 -8 0 -15 5 -15 10 0 6 7 10 15 10 8 0 15 -4
15 -10z m-2630 -25 c0 -8 -4 -15 -9 -15 -13 0 -22 16 -14 24 11 11 23 6 23 -9z
m-930 -15 c0 -5 -7 -10 -15 -10 -8 0 -15 5 -15 10 0 6 7 10 15 10 8 0 15 -4
15 -10z m1350 -54 c0 -3 -4 -8 -10 -11 -5 -3 -10 -1 -10 4 0 6 5 11 10 11 6 0
10 -2 10 -4z m191 -49 c-10 -9 -11 -8 -5 6 3 10 9 15 12 12 3 -3 0 -11 -7 -18z
m1476 -23 c-3 -3 -12 -4 -19 -1 -8 3 -5 6 6 6 11 1 17 -2 13 -5z m1378 -103
c7 -12 -12 -24 -25 -16 -11 7 -4 25 10 25 5 0 11 -4 15 -9z m-683 -56 c0 -5
-5 -11 -11 -13 -6 -2 -11 4 -11 13 0 9 5 15 11 13 6 -2 11 -8 11 -13z m318
-43 c0 -13 -12 -22 -22 -16 -10 6 -1 24 13 24 5 0 9 -4 9 -8z m-560 -72 c0 -5
-4 -10 -9 -10 -6 0 -13 5 -16 10 -3 6 1 10 9 10 9 0 16 -4 16 -10z m-22 -27
c-4 -19 -38 -27 -38 -9 0 17 10 26 27 26 8 0 13 -7 11 -17z m-873 -93 c3 -5
-1 -10 -9 -10 -9 0 -16 5 -16 10 0 6 4 10 9 10 6 0 13 -4 16 -10z m-1570 -19
c7 -12 -12 -24 -25 -16 -11 7 -4 25 10 25 5 0 11 -4 15 -9z m225 -61 c0 -5 -4
-10 -10 -10 -5 0 -10 5 -10 10 0 6 5 10 10 10 6 0 10 -4 10 -10z m1220 1 c0
-10 -30 -24 -37 -17 -3 3 -2 9 2 15 8 13 35 15 35 2z m-330 -41 c0 -5 -4 -10
-10 -10 -5 0 -10 5 -10 10 0 6 5 10 10 10 6 0 10 -4 10 -10z m163 -82 c7 -22
-5 -48 -22 -49 -9 -1 -28 -3 -43 -5 -16 -1 -28 -1 -28 2 0 11 23 49 34 56 18
12 54 9 59 -4z m-673 -149 c0 -5 -7 -9 -15 -9 -8 0 -15 7 -15 15 0 9 6 12 15
9 8 -4 15 -10 15 -15z"/>
<path d="M6996 7689 c-17 -5 -32 -6 -34 -4 -8 8 -32 -24 -32 -43 0 -21 -30
-52 -54 -56 -8 -1 -23 -10 -34 -19 -17 -16 -20 -15 -50 14 -18 17 -32 37 -32
43 0 18 -43 56 -63 56 -9 0 -17 -4 -17 -9 0 -5 -9 -7 -20 -4 -11 3 -20 10 -20
16 0 6 -3 8 -6 4 -3 -3 7 -25 23 -49 16 -24 33 -51 36 -61 15 -41 -36 -83 -80
-66 -30 11 -53 1 -53 -22 0 -14 -7 -19 -28 -19 -25 0 -28 -3 -25 -27 3 -22 -5
-38 -40 -75 -50 -54 -68 -59 -87 -23 -12 23 -24 29 -57 28 -6 0 -9 6 -6 15 4
10 2 13 -5 8 -7 -4 -17 -4 -24 0 -8 5 -6 10 8 15 15 6 13 8 -11 8 -24 1 -27 3
-15 12 12 9 11 10 -7 6 -15 -3 -20 -1 -16 9 4 10 0 12 -11 8 -11 -4 -15 -2
-11 7 5 17 -113 109 -169 133 -49 21 -126 22 -126 2 0 -25 27 -43 125 -81 122
-47 216 -116 393 -289 146 -142 173 -183 148 -221 -17 -26 -75 -39 -114 -24
-15 6 -28 9 -28 7 -1 -2 -23 18 -48 45 -26 26 -52 47 -60 47 -13 0 -31 27 -28
42 1 5 -1 7 -6 7 -18 -3 -32 2 -32 11 0 6 -12 23 -27 39 -16 15 -35 38 -43 51
-53 82 -108 116 -139 86 -17 -18 -28 -6 168 -178 105 -91 177 -183 243 -311
51 -98 79 -126 106 -105 6 6 12 18 13 27 0 9 13 39 28 66 37 67 59 69 115 13
71 -72 175 -349 176 -468 0 -57 -20 -86 -62 -92 -45 -7 -72 8 -87 47 -11 31
-51 56 -51 32 0 -7 -5 -5 -10 3 -9 13 -10 13 -10 0 0 -13 -1 -13 -10 0 -20 32
-25 -10 -26 -213 0 -164 -4 -228 -17 -282 -10 -38 -20 -106 -23 -150 -5 -69
-3 -84 15 -112 16 -26 28 -33 51 -33 18 0 29 4 25 10 -3 6 -2 10 3 10 20 0 42
100 42 192 1 139 26 217 75 226 30 6 38 -14 36 -101 -2 -89 9 -134 34 -143 24
-10 28 0 33 82 3 57 1 78 -9 85 -11 6 -10 14 4 41 42 78 63 110 77 118 24 12
59 -7 66 -36 9 -35 -2 -262 -17 -339 -18 -99 -4 -185 31 -185 29 0 34 26 46
217 7 109 16 209 20 223 l7 25 -22 -25 c-29 -32 -19 -14 36 69 72 107 92 121
127 85 23 -23 20 -73 -16 -216 -33 -137 -32 -165 11 -187 16 -9 25 -7 45 11
20 18 30 44 45 118 11 52 22 118 25 145 5 45 5 47 -5 20 -12 -32 -49 -78 -57
-70 -3 2 0 10 6 17 5 7 15 40 21 73 6 33 29 96 50 141 77 158 89 322 35 483
-39 118 -121 257 -153 262 -47 6 -49 5 -41 -15 4 -12 22 -46 40 -76 90 -153
126 -350 80 -444 -24 -51 -37 -61 -93 -71 -42 -8 -49 1 -61 90 -19 132 -87
331 -134 393 -10 13 -35 27 -56 32 l-37 8 6 -31 c4 -18 29 -81 55 -142 53
-122 70 -174 70 -221 0 -37 -13 -49 -62 -58 -31 -6 -39 -3 -57 20 -12 15 -21
35 -21 45 0 10 -4 20 -9 23 -5 3 -12 18 -16 33 -10 42 -96 233 -105 233 -4 0
-11 12 -14 26 -7 26 -7 26 -28 8 -19 -17 -21 -17 -15 -2 4 11 2 17 -6 15 -7
-1 -11 6 -11 15 1 10 -2 15 -7 13 -8 -6 -9 -2 -9 85 0 53 -39 168 -52 154 -4
-3 -9 4 -13 15 -3 11 -21 33 -39 49 -50 44 -51 48 -7 100 23 27 41 58 41 70 0
12 9 31 21 43 32 32 66 18 140 -61 l65 -70 25 28 c14 15 37 44 53 65 31 42 52
46 90 16 15 -12 30 -19 33 -15 4 3 0 6 -8 6 -10 1 -9 4 4 11 9 6 15 14 13 18
-6 10 29 110 44 125 5 5 10 20 10 32 0 24 -72 166 -98 193 -21 23 -68 31 -106
20z m-283 -46 c-3 -7 -6 -13 -8 -13 -2 0 -5 6 -8 13 -3 8 1 14 8 14 7 0 11 -6
8 -14z"/>
<path d="M6330 7662 c0 -10 18 -36 40 -57 38 -37 41 -38 58 -21 16 16 16 18
-1 31 -10 7 -19 22 -20 33 -1 14 -5 18 -12 12 -7 -6 -16 -5 -23 2 -9 9 -12 9
-12 1 0 -6 8 -20 18 -29 16 -17 16 -18 -1 -11 -10 4 -21 7 -23 7 -2 0 -4 11
-4 25 0 14 -4 25 -10 25 -5 0 -10 -8 -10 -18z"/>
<path d="M6560 7629 c1 -19 21 -43 47 -57 29 -16 34 -15 27 3 -4 8 -12 15 -19
15 -8 0 -23 12 -34 26 -12 15 -21 20 -21 13z"/>
<path d="M6260 7556 c0 -2 8 -10 18 -17 15 -13 16 -12 3 4 -13 16 -21 21 -21
13z"/>
<path d="M6476 7541 c-4 -5 -2 -12 3 -15 5 -4 12 -2 15 3 4 5 2 12 -3 15 -5 4
-12 2 -15 -3z"/>
<path d="M6320 7509 c0 -5 5 -7 10 -4 6 3 10 8 10 11 0 2 -4 4 -10 4 -5 0 -10
-5 -10 -11z"/>
<path d="M5328 7503 c6 -2 18 -2 25 0 6 3 1 5 -13 5 -14 0 -19 -2 -12 -5z"/>
<path d="M6346 7501 c-4 -5 9 -21 26 -35 18 -15 38 -31 45 -36 7 -6 16 -10 20
-10 4 1 -10 17 -32 36 -22 20 -32 33 -22 30 11 -3 16 -2 12 5 -4 5 -16 7 -27
3 -14 -4 -18 -2 -14 5 4 6 5 11 2 11 -3 0 -7 -4 -10 -9z"/>
<path d="M4874 7371 c-41 -10 -51 -17 -57 -40 -8 -32 9 -44 60 -45 64 -1 108
21 108 54 0 18 -5 25 -17 24 -10 -1 -15 2 -12 7 6 10 -37 10 -82 0z"/>
<path d="M6257 7308 c26 -24 69 -67 96 -95 27 -29 54 -50 60 -46 6 3 7 1 3 -6
-8 -12 98 -141 115 -141 33 0 -105 156 -245 278 -72 62 -95 70 -29 10z"/>
<path d="M7090 7246 c0 -2 7 -7 16 -10 8 -3 12 -2 9 4 -6 10 -25 14 -25 6z"/>
<path d="M6085 7220 c10 -11 20 -20 23 -20 3 0 -3 9 -13 20 -10 11 -20 20 -23
20 -3 0 3 -9 13 -20z"/>
<path d="M6966 7173 c-3 -7 1 -10 10 -6 10 3 12 0 8 -10 -9 -23 118 -119 134
-101 4 4 1 9 -6 11 -6 3 -10 9 -6 14 3 5 0 9 -5 9 -6 0 -11 6 -11 13 0 19 -53
67 -74 67 -9 0 -15 4 -12 8 2 4 -4 8 -14 8 -11 0 -22 -6 -24 -13z"/>
<path d="M4317 7138 c-41 -38 -58 -78 -33 -78 22 0 83 59 91 88 9 32 -15 28
-58 -10z"/>
<path d="M6150 7163 c0 -5 20 -28 44 -51 24 -23 46 -47 49 -54 2 -7 7 -10 11
-7 4 4 -18 32 -49 64 -30 31 -55 53 -55 48z"/>
<path d="M6266 6987 c3 -10 9 -15 12 -12 3 3 0 11 -7 18 -10 9 -11 8 -5 -6z"/>
<path d="M6844 6352 c-6 -4 -7 -18 -4 -32 6 -21 8 -22 14 -8 10 23 4 49 -10
40z"/>
<path d="M4968 5693 c7 -3 16 -2 19 1 4 3 -2 6 -13 5 -11 0 -14 -3 -6 -6z"/>
<path d="M6290 5550 c0 -5 5 -10 10 -10 6 0 10 5 10 10 0 6 -4 10 -10 10 -5 0
-10 -4 -10 -10z"/>
<path d="M6112 5354 c-7 -8 -8 -14 -3 -14 10 0 25 19 20 25 -2 1 -10 -3 -17
-11z"/>
<path d="M6615 5351 c-16 -10 -63 -55 -104 -100 -69 -77 -72 -83 -57 -100 9
-10 16 -24 16 -33 0 -20 9 -28 26 -21 8 3 14 19 14 39 0 33 1 34 39 34 33 0
45 7 84 49 51 55 65 91 48 127 -13 29 -26 30 -66 5z"/>
<path d="M5962 5296 c-23 -11 -25 -27 -4 -34 7 -2 11 2 10 9 -2 7 13 19 32 25
29 11 31 13 10 12 -14 0 -35 -5 -48 -12z"/>
<path d="M5998 5273 c7 -3 16 -2 19 1 4 3 -2 6 -13 5 -11 0 -14 -3 -6 -6z"/>
<path d="M5915 5260 c-3 -5 -21 -17 -40 -26 -32 -15 -48 -44 -25 -44 6 0 10 6
10 14 0 8 10 16 21 18 19 3 62 48 46 48 -3 0 -9 -4 -12 -10z"/>
<path d="M6367 5093 c-4 -3 -7 -15 -7 -25 0 -15 -8 -18 -45 -18 l-45 0 0 -46
0 -46 28 22 c15 11 42 31 59 43 18 12 35 30 39 39 9 28 -11 49 -29 31z"/>
<path d="M6594 5086 c-8 -22 3 -33 18 -18 9 9 9 15 0 24 -9 9 -13 7 -18 -6z"/>
<path d="M6700 5085 c0 -8 2 -15 4 -15 2 0 11 -3 20 -6 12 -4 16 0 16 15 0 14
-6 21 -20 21 -11 0 -20 -7 -20 -15z"/>
<path d="M6492 5037 c-17 -21 -12 -50 6 -38 8 4 12 19 10 31 -3 21 -4 22 -16
7z"/>
<path d="M6167 4993 c-4 -3 -7 -21 -7 -40 0 -23 5 -33 15 -33 11 0 15 11 15
40 0 38 -8 49 -23 33z"/>
<path d="M6605 4990 c3 -5 8 -10 11 -10 2 0 4 5 4 10 0 6 -5 10 -11 10 -5 0
-7 -4 -4 -10z"/>
<path d="M6590 4933 c0 -39 2 -44 15 -33 8 7 15 25 15 40 0 16 -7 30 -15 34
-12 4 -15 -4 -15 -41z"/>
<path d="M6376 4951 c-19 -21 -12 -28 13 -12 7 5 12 14 9 21 -2 7 -10 4 -22
-9z"/>
<path d="M6056 4935 c-11 -8 -16 -21 -13 -30 13 -32 43 -7 35 29 -3 13 -6 13
-22 1z"/>
<path d="M6482 4884 c-2 -33 1 -45 10 -42 17 6 20 88 3 88 -7 0 -12 -18 -13
-46z"/>
<path d="M5905 4866 c-57 -33 -390 -123 -510 -137 -126 -15 -135 -15 -135 6 0
12 -10 13 -47 9 -54 -7 -165 -43 -174 -57 -3 -5 -10 -9 -15 -10 -12 -3 -15
-30 -4 -47 14 -23 111 -16 209 15 93 30 122 27 148 -11 16 -26 16 -28 -11 -79
-20 -38 -37 -57 -59 -65 -18 -7 -51 -21 -74 -31 -45 -20 -150 -38 -219 -39
-58 0 -142 29 -149 51 -7 22 -45 25 -94 8 -37 -13 -41 -39 -9 -69 60 -55 230
-53 453 6 119 32 169 32 190 0 17 -26 9 -62 -19 -85 -9 -7 -16 -20 -16 -27 0
-17 -62 -45 -74 -33 -5 4 -15 1 -23 -6 -7 -8 -30 -17 -51 -20 -20 -3 -70 -14
-110 -25 -40 -11 -79 -17 -85 -14 -7 4 -3 -2 8 -14 14 -14 38 -22 83 -26 70
-7 96 -19 111 -53 14 -31 -28 -121 -76 -162 -40 -34 -37 -43 16 -58 20 -5 253
16 351 31 14 2 48 7 75 11 28 4 55 11 62 17 7 5 16 7 21 4 5 -3 29 1 53 8 l44
14 -65 -4 c-35 -3 -67 -10 -71 -16 -5 -7 -18 -8 -45 0 l-39 10 38 1 c20 1 37
6 37 12 0 7 -11 8 -29 4 -16 -3 -32 -2 -35 3 -3 5 -33 9 -68 9 -35 0 -57 -2
-50 -4 10 -4 10 -8 1 -19 -15 -18 -38 -18 -45 1 -4 8 -9 13 -13 11 -6 -4 4
105 15 159 10 53 136 95 284 95 165 1 404 18 408 29 2 6 8 8 13 5 11 -6 39 13
39 27 0 5 -10 9 -22 9 -19 0 -20 -2 -8 -10 8 -5 10 -10 5 -10 -6 0 -17 6 -23
12 -7 7 -29 11 -50 10 -29 -2 -34 0 -22 8 11 8 1 10 -40 6 -30 -2 -125 -10
-210 -17 -148 -12 -175 -19 -165 -46 2 -6 -4 -11 -14 -10 -15 1 -16 7 -10 41
5 23 8 58 9 79 0 66 34 78 360 122 212 29 310 51 463 106 160 57 273 132 247
164 -18 22 -93 5 -122 -27 -9 -11 -22 -17 -27 -13 -6 3 -11 -1 -11 -10 0 -12
-5 -15 -17 -11 -15 5 -14 3 2 -10 20 -16 20 -16 -1 -10 -12 4 -32 2 -45 -3
-13 -5 -17 -10 -9 -11 11 0 10 -4 -4 -12 -15 -8 -21 -8 -24 0 -2 7 -8 12 -13
12 -6 0 -7 -4 -4 -10 3 -5 -1 -10 -9 -10 -9 0 -16 -4 -16 -10 0 -5 -18 -10
-39 -10 -22 0 -41 -4 -43 -10 -1 -5 -28 -12 -58 -16 -30 -3 -60 -11 -67 -16
-7 -5 -21 -7 -32 -3 -11 3 -28 2 -38 -3 -10 -6 -59 -17 -108 -25 -113 -18
-113 -18 -215 -22 -119 -5 -138 -11 -149 -49 -7 -22 -8 -10 -4 44 3 41 11 81
16 89 18 21 50 30 175 46 221 28 257 34 325 50 86 20 214 60 267 84 40 18 40
19 15 23 -14 3 -28 1 -31 -3 -7 -12 -51 -11 -76 2 -14 8 -23 8 -31 0 -6 -6
-23 -11 -37 -11 -15 0 -59 -11 -99 -25 -41 -13 -94 -26 -118 -28 -25 -3 -49
-11 -54 -18 -6 -9 -9 2 -9 33 0 26 4 49 9 52 9 6 -8 66 -19 66 -3 0 -23 -11
-45 -24z m328 -73 c-7 -2 -19 -2 -25 0 -7 3 -2 5 12 5 14 0 19 -2 13 -5z m93
-188 c-1 -8 -6 -18 -11 -22 -4 -4 -5 -2 -1 5 4 7 2 12 -6 12 -9 0 -9 3 2 10
19 12 19 13 16 -5z m-1546 -139 c0 -2 -7 -7 -16 -10 -8 -3 -12 -2 -9 4 6 10
25 14 25 6z m1207 -162 c-3 -3 -12 -4 -19 -1 -8 3 -5 6 6 6 11 1 17 -2 13 -5z
m-462 -354 c-3 -5 -12 -10 -18 -10 -7 0 -6 4 3 10 19 12 23 12 15 0z"/>
<path d="M6165 4860 c-3 -5 -2 -10 4 -10 5 0 13 5 16 10 3 6 2 10 -4 10 -5 0
-13 -4 -16 -10z"/>
<path d="M6360 4725 c-14 -8 -20 -14 -15 -14 6 0 21 6 35 14 14 8 21 14 15 14
-5 0 -21 -6 -35 -14z"/>
<path d="M5968 4623 c7 -3 16 -2 19 1 4 3 -2 6 -13 5 -11 0 -14 -3 -6 -6z"/>
<path d="M5893 4613 c9 -2 23 -2 30 0 6 3 -1 5 -18 5 -16 0 -22 -2 -12 -5z"/>
<path d="M5048 4563 c6 -2 18 -2 25 0 6 3 1 5 -13 5 -14 0 -19 -2 -12 -5z"/>
<path d="M5270 4500 c-9 -6 -10 -10 -3 -10 6 0 15 5 18 10 8 12 4 12 -15 0z"/>
<path d="M5565 3880 l-30 -8 27 -1 c15 0 30 4 33 9 3 6 5 9 3 9 -2 -1 -16 -5
-33 -9z"/>
<path d="M7983 6269 c-7 -7 -13 -22 -13 -33 0 -19 1 -19 16 -4 9 8 14 23 12
32 -2 14 -5 15 -15 5z"/>
<path d="M3389 5128 c-21 -14 -45 -46 -64 -83 -29 -58 -30 -63 -29 -205 1 -85
7 -180 17 -230 8 -47 18 -107 22 -135 7 -54 25 -94 49 -114 14 -12 14 -10 0
18 -21 42 -15 73 16 83 24 7 24 8 -2 4 -24 -3 -28 1 -28 20 0 30 5 32 102 49
45 8 87 20 92 26 8 9 2 10 -24 3 -19 -4 -62 -8 -95 -8 -56 -1 -60 1 -74 28
-12 26 -12 33 0 55 9 15 25 27 39 29 36 4 110 32 110 42 0 4 -17 4 -37 -1 -61
-14 -108 -11 -126 9 -28 30 -37 67 -26 106 11 39 33 56 75 56 22 0 25 2 14 15
-7 8 -18 15 -25 15 -26 0 -65 60 -65 100 0 32 7 47 38 79 44 46 80 58 122 41
55 -23 100 -96 70 -115 -17 -11 -11 -33 11 -40 28 -9 43 -47 35 -90 -6 -29
-14 -39 -41 -51 -19 -8 -53 -14 -76 -14 -23 0 -39 -3 -35 -7 4 -5 40 -8 79 -8
40 0 80 -4 90 -9 15 -7 17 -3 17 32 0 51 -25 184 -41 214 -17 33 -60 78 -91
94 -39 20 -80 17 -119 -8z"/>
<path d="M3404 5101 c-38 -23 -67 -81 -58 -116 3 -14 18 -35 33 -46 l26 -21
12 30 c7 17 28 43 48 57 36 28 46 55 20 55 -8 0 -15 -7 -15 -15 0 -9 -10 -15
-26 -15 -22 0 -25 4 -22 28 2 19 13 32 38 44 l35 18 -30 0 c-16 0 -44 -9 -61
-19z"/>
<path d="M3560 4892 c0 -18 -9 -21 -95 -27 -103 -8 -113 -13 -122 -68 -4 -29
-1 -40 21 -62 20 -20 33 -25 49 -21 60 17 113 18 126 2 12 -14 9 -18 -25 -32
-21 -9 -54 -18 -73 -21 -46 -7 -61 -20 -61 -49 0 -36 28 -57 69 -51 131 20
125 20 139 -3 8 -12 9 -19 4 -16 -5 3 -27 -1 -48 -9 -22 -8 -65 -17 -96 -20
-41 -5 -58 -11 -58 -21 0 -9 11 -14 30 -14 19 0 30 -5 30 -14 0 -7 -13 -16
-30 -19 -20 -5 -30 -12 -30 -25 0 -25 29 -64 42 -56 7 4 8 2 4 -5 -4 -6 0 -14
10 -18 10 -4 20 0 26 10 5 10 17 17 27 17 28 0 31 10 8 33 l-22 22 58 6 c32 4
63 11 69 17 19 19 20 122 3 149 -18 27 -35 28 -98 7 -51 -17 -97 -12 -97 11 0
9 27 22 73 36 115 34 115 35 123 73 11 61 5 66 -91 66 -77 0 -85 2 -85 19 0
15 10 20 53 26 78 11 99 21 95 47 -4 28 -28 36 -28 10z"/>
<path d="M3636 4723 c-10 -42 -21 -50 -107 -74 -41 -11 -78 -25 -83 -30 -15
-14 29 -11 92 7 l56 17 29 -34 c27 -31 28 -39 23 -94 -2 -33 -8 -69 -11 -80
-3 -11 2 -6 12 10 14 24 17 48 15 120 -1 50 -6 113 -10 140 -8 49 -8 49 -16
18z"/>
<path d="M8245 5091 c-50 -31 -74 -64 -102 -142 -27 -71 -28 -81 -27 -249 1
-113 6 -186 14 -205 11 -27 13 -28 20 -10 4 11 3 22 -1 23 -13 5 -11 19 5 35
11 11 26 12 63 6 26 -4 66 -8 88 -7 31 0 24 3 -35 14 -41 8 -83 15 -93 16 -22
3 -33 42 -21 77 9 25 13 26 71 23 34 -2 70 1 80 7 14 8 9 10 -29 11 -88 0
-148 40 -148 98 0 30 38 82 60 82 20 0 26 11 13 24 -5 4 -8 11 -9 14 0 4 -6
19 -12 34 -13 32 0 87 26 111 10 9 35 23 56 32 48 20 94 7 131 -36 26 -32 34
-87 13 -93 -54 -16 -55 -17 -19 -34 41 -20 57 -62 40 -105 -14 -33 -41 -41
-117 -33 -74 8 -37 -9 42 -19 78 -10 103 -47 74 -110 -11 -24 -14 -25 -110
-25 -64 0 -97 -4 -93 -10 3 -5 34 -10 68 -10 84 0 105 -8 122 -41 18 -33 20
-102 4 -131 -18 -33 -1 -33 19 1 17 28 20 58 24 268 3 131 1 252 -4 270 -18
66 -99 133 -160 133 -13 0 -36 -8 -53 -19z"/>
<path d="M8304 5069 c-3 -6 -13 -8 -21 -4 -9 3 -31 -6 -49 -20 -66 -50 -36
-132 56 -156 94 -24 69 -66 -30 -50 -88 14 -121 -8 -104 -73 9 -36 41 -56 89
-56 58 0 85 -10 85 -30 0 -23 -20 -27 -97 -23 -60 3 -63 2 -63 -20 0 -12 4
-27 8 -34 12 -19 59 -33 111 -33 56 0 91 -19 69 -38 -21 -17 -128 -28 -128
-13 0 7 -4 9 -10 6 -5 -3 -10 -2 -10 2 0 5 -9 9 -20 10 -31 3 -23 -14 10 -20
18 -4 30 -13 30 -22 0 -8 -4 -15 -9 -15 -5 0 -17 -3 -27 -7 -12 -4 -15 -3 -10
5 4 7 2 12 -3 12 -29 0 -4 -59 36 -88 31 -21 88 -38 79 -23 -9 14 20 21 34 8
10 -10 10 -7 1 10 -10 20 -9 22 5 16 11 -4 15 -2 11 4 -4 6 6 16 23 22 50 17
61 97 16 114 -9 4 -16 13 -16 22 0 12 -14 15 -72 15 -79 0 -104 9 -95 34 5 12
22 16 74 18 107 3 110 3 127 17 17 14 21 48 8 69 -6 9 -111 30 -165 32 -5 0
-7 10 -5 23 3 21 7 22 80 18 70 -3 77 -1 88 19 25 46 -14 93 -75 92 -11 0 -14
2 -7 5 6 3 12 14 12 25 0 11 8 22 20 25 11 3 18 9 15 13 -8 13 6 41 17 34 5
-3 4 3 -3 14 -16 26 -76 55 -85 41z m99 -244 c-6 -17 -23 -20 -23 -5 0 6 5 10
11 10 5 0 7 5 3 12 -4 7 -3 8 4 4 6 -4 9 -13 5 -21z"/>
<path d="M8255 4860 c19 -8 73 -14 64 -6 -2 2 -22 6 -44 9 -28 5 -34 4 -20 -3z"/>
<path d="M7324 4600 c-23 -12 -50 -31 -62 -43 -18 -20 -167 -326 -196 -405 -7
-18 -11 -46 -8 -62 l4 -30 18 22 c10 13 16 33 13 48 -5 33 30 80 59 80 20 0
20 1 5 18 -24 27 -21 50 12 83 l30 29 48 -19 c61 -23 123 -35 123 -22 0 5 -22
14 -50 21 -94 23 -119 65 -86 145 21 50 105 130 144 138 75 15 145 -45 144
-125 -1 -53 -17 -71 -56 -63 -31 6 -31 6 -6 -7 14 -8 25 -22 25 -33 0 -17 -6
-20 -37 -18 -21 1 -56 12 -79 23 -22 12 -50 19 -62 17 -21 -4 -21 -5 -2 -11
11 -4 45 -17 75 -29 51 -21 55 -24 58 -59 3 -30 -1 -40 -22 -53 -22 -15 -29
-15 -80 0 -75 22 -97 13 -26 -10 30 -9 63 -24 73 -33 55 -48 -27 -145 -95
-112 -19 9 -20 9 -7 -2 23 -19 32 -67 17 -86 -32 -39 32 10 71 55 48 54 85
127 135 268 53 146 47 209 -24 269 -39 32 -98 35 -156 6z"/>
<path d="M7363 4583 c-31 -6 -112 -101 -119 -139 -13 -71 4 -92 94 -114 43
-11 63 -33 46 -50 -10 -10 -94 8 -152 31 -29 12 -34 11 -53 -8 -15 -15 -20
-28 -16 -45 8 -31 79 -72 108 -63 15 5 19 4 15 -4 -4 -6 -3 -11 3 -11 5 0 12
4 16 10 6 10 36 2 46 -13 4 -5 9 -5 13 1 8 13 -77 55 -109 55 -21 0 -23 2 -14
20 10 17 17 19 63 12 86 -13 108 -11 120 8 17 27 -4 49 -75 78 -47 19 -64 31
-64 45 0 21 25 24 80 10 17 -4 27 -4 23 -1 -4 4 9 22 30 41 22 20 39 28 43 22
4 -6 10 -2 14 11 7 22 25 29 25 9 0 -6 3 -9 6 -6 10 11 -24 74 -49 91 -26 16
-48 19 -94 10z"/>
<path d="M7433 4385 c0 -8 9 -15 19 -15 22 0 24 16 2 24 -21 8 -21 8 -21 -9z"/>
<path d="M7130 4180 c-26 -26 -25 -31 5 -66 30 -34 30 -40 8 -53 -13 -7 -20
-5 -29 7 -17 23 -28 9 -20 -23 13 -51 116 -86 146 -50 7 9 10 18 7 22 -4 3 -2
12 3 19 8 8 6 16 -4 27 -8 8 -12 17 -9 21 3 3 -8 9 -25 12 -32 7 -43 30 -19
40 8 3 39 -5 70 -16 56 -21 102 -20 94 3 -2 6 -12 15 -23 21 -10 6 -22 15 -25
19 -3 5 -9 2 -12 -7 -9 -23 -33 -20 -93 14 l-53 31 -21 -21z"/>
<path d="M7200 4195 c0 -7 61 -37 66 -33 2 3 -12 12 -31 21 -19 9 -35 15 -35
12z"/>
<path d="M7325 4170 c3 -5 8 -10 11 -10 2 0 4 5 4 10 0 6 -5 10 -11 10 -5 0
-7 -4 -4 -10z"/>
<path d="M7360 4160 c-8 -5 -12 -11 -9 -14 2 -3 11 -1 19 4 8 5 12 11 9 14 -2
3 -11 1 -19 -4z"/>
<path d="M4169 4096 c13 -16 51 -41 51 -33 0 2 -15 14 -32 27 -21 15 -28 17
-19 6z"/>
<path d="M4310 3997 c0 -3 18 -20 40 -37 22 -17 40 -29 40 -27 0 3 -18 20 -40
37 -22 17 -40 29 -40 27z"/>
<path d="M4460 3886 c0 -2 8 -10 18 -17 15 -13 16 -12 3 4 -13 16 -21 21 -21
13z"/>
<path d="M6373 3948 c-26 -13 -29 -19 -48 -128 -18 -102 -42 -144 -137 -237
-121 -120 -219 -180 -343 -208 -77 -18 -297 -22 -355 -6 -178 49 -198 52 -272
49 -58 -2 -83 -8 -104 -24 -51 -38 -53 -51 -12 -89 70 -65 194 -79 393 -45
418 71 745 211 955 407 l84 79 4 65 c4 60 2 66 -24 93 -29 29 -82 57 -106 55
-7 0 -23 -5 -35 -11z"/>
<path d="M5945 3855 c-56 -39 -204 -111 -276 -135 -48 -17 -77 -21 -115 -16
-59 7 -104 -6 -122 -34 -27 -43 25 -75 123 -75 50 0 75 7 150 43 49 24 120 50
157 58 114 23 172 63 181 122 2 12 6 24 9 28 4 3 4 12 1 20 -8 23 -67 16 -108
-11z"/>
<path d="M6216 3833 c24 -52 -9 -160 -64 -209 -45 -39 -131 -81 -268 -129
-176 -63 -263 -85 -331 -85 -53 1 -159 20 -180 33 -5 3 -14 2 -21 -2 -8 -4 27
-19 85 -36 86 -26 113 -29 223 -29 238 2 360 58 547 254 53 55 63 71 63 101 0
20 -8 47 -19 60 -10 13 -17 32 -15 42 1 10 -4 17 -13 17 -11 0 -13 -5 -7 -17z"/>
<path d="M6118 3813 c-8 -10 -27 -44 -42 -76 -31 -64 -97 -134 -163 -174 -90
-53 -205 -65 -374 -39 -101 15 -146 11 -160 -15 -19 -36 5 -56 86 -74 96 -21
117 -18 340 57 188 63 283 103 329 139 56 44 92 166 56 189 -24 15 -56 12 -72
-7z"/>
<path d="M6699 3770 c-87 -24 -165 -75 -258 -169 -185 -186 -344 -286 -552
-346 -96 -27 -205 -40 -467 -55 -159 -9 -192 -14 -248 -36 -93 -38 -114 -57
-114 -104 0 -55 33 -76 116 -73 91 2 203 35 349 102 72 32 200 84 285 114 85
30 229 83 320 117 91 34 228 81 305 105 77 23 163 53 190 68 72 36 178 118
192 148 14 29 2 89 -21 108 -22 19 -69 28 -97 21z"/>
<path d="M6878 3570 c-15 -4 -53 -27 -86 -49 -32 -23 -101 -57 -153 -75 -186
-67 -255 -94 -324 -125 -168 -77 -310 -131 -600 -227 -623 -206 -613 -202
-650 -274 -30 -60 -31 -70 -4 -104 31 -39 88 -36 158 9 30 19 96 48 147 65 75
25 116 47 211 115 170 121 263 163 630 290 169 59 191 64 320 75 76 7 161 18
189 26 29 8 87 21 129 29 91 17 160 48 181 81 20 30 22 108 3 130 -30 37 -94
51 -151 34z"/>
<path d="M6395 3396 c-55 -18 -185 -65 -290 -104 -104 -39 -237 -87 -295 -108
-116 -40 -363 -145 -357 -150 2 -2 35 7 73 20 38 13 155 52 259 85 201 65 280
95 545 208 91 39 172 73 180 76 13 5 13 5 0 6 -8 0 -60 -15 -115 -33z"/>
<path d="M6923 3283 c9 -2 23 -2 30 0 6 3 -1 5 -18 5 -16 0 -22 -2 -12 -5z"/>
<path d="M6410 3243 c-42 -7 -331 -104 -390 -130 -30 -14 -77 -33 -105 -43
-83 -29 -157 -65 -228 -109 -37 -24 -67 -45 -67 -47 0 -2 46 21 103 51 168 89
557 237 708 270 57 12 41 19 -21 8z"/>
<path d="M6645 3240 c-156 -9 -286 -38 -481 -110 -300 -110 -474 -195 -637
-311 -161 -114 -193 -157 -165 -216 9 -20 22 -29 43 -31 68 -8 99 13 300 203
210 198 250 230 349 276 106 49 187 61 391 56 152 -3 188 -7 230 -25 52 -21
93 -19 155 6 27 10 59 42 44 42 -5 0 -1 5 9 11 36 21 10 85 -42 99 -20 5 -43
9 -51 8 -8 0 -73 -4 -145 -8z m245 -80 c0 -5 -2 -10 -4 -10 -3 0 -8 5 -11 10
-3 6 -1 10 4 10 6 0 11 -4 11 -10z"/>
<path d="M6419 3063 c-29 -8 -90 -30 -134 -49 -91 -40 -193 -80 -309 -120
-123 -43 -216 -119 -216 -175 0 -27 44 -53 76 -45 14 4 73 52 131 107 57 55
126 110 152 123 73 38 158 49 303 41 120 -6 127 -6 147 14 66 66 -31 134 -150
104z"/>
<path d="M6657 3059 c7 -7 15 -10 18 -7 3 3 -2 9 -12 12 -14 6 -15 5 -6 -5z"/>
<path d="M6698 3043 c7 -3 16 -2 19 1 4 3 -2 6 -13 5 -11 0 -14 -3 -6 -6z"/>
<path d="M7982 3668 c-17 -17 -15 -48 3 -48 10 0 15 10 15 30 0 34 -1 35 -18
18z"/>
<path d="M7581 3434 c0 -11 3 -14 6 -6 3 7 2 16 -1 19 -3 4 -6 -2 -5 -13z"/>
<path d="M4983 3663 c-18 -7 -16 -43 2 -43 9 0 15 9 15 25 0 14 -1 25 -2 24
-2 0 -9 -3 -15 -6z"/>
<path d="M8890 5530 c0 -5 5 -10 11 -10 5 0 7 5 4 10 -3 6 -8 10 -11 10 -2 0
-4 -4 -4 -10z"/>
<path d="M2730 3625 c0 -5 5 -17 10 -25 5 -8 10 -10 10 -5 0 6 -5 17 -10 25
-5 8 -10 11 -10 5z"/>
<path d="M2777 3513 c-2 -5 2 -21 10 -38 11 -24 13 -25 8 -5 -4 14 -7 31 -7
38 -1 14 -5 15 -11 5z"/>
<path d="M9172 3425 c-11 -13 -23 -21 -27 -17 -4 4 -5 -4 -1 -18 3 -14 3 -19
0 -12 -10 21 -26 13 -19 -10 4 -16 4 -19 -3 -9 -10 14 -36 6 -27 -9 3 -5 0
-12 -6 -16 -8 -4 -9 -3 -5 4 11 18 -10 14 -24 -3 -10 -12 -10 -21 -1 -41 8
-18 8 -31 0 -45 -6 -12 -8 -23 -6 -26 3 -2 25 26 49 64 85 131 121 204 70 138z
m-74 -121 c-14 -14 -16 -14 -21 0 -4 10 -1 13 9 9 7 -3 14 1 14 8 0 7 3 9 7 5
4 -3 0 -13 -9 -22z"/>
<path d="M2826 3382 c8 -19 14 -36 14 -38 0 -2 5 -4 10 -4 6 0 3 11 -6 25 -9
14 -14 31 -11 38 3 8 -1 14 -8 14 -12 0 -11 -6 1 -35z"/>
<path d="M2865 3293 c24 -57 31 -67 40 -54 4 7 -2 23 -15 36 -12 13 -20 30
-17 38 3 7 -1 14 -8 14 -12 0 -12 -6 0 -34z"/>
<path d="M3022 3280 c13 -25 25 -47 28 -50 11 -11 30 -50 30 -61 0 -7 8 -18
18 -25 16 -13 16 -13 -3 -14 -16 -1 -14 -4 10 -15 17 -8 24 -14 18 -15 -7 0
-13 -9 -13 -21 0 -11 5 -17 10 -14 6 3 10 -3 10 -14 0 -10 3 -21 8 -24 4 -2 1
-2 -5 -1 -7 2 -13 -1 -13 -5 0 -17 -45 2 -64 27 -17 21 -20 22 -28 8 -5 -9 -6
-22 -2 -29 5 -9 4 -9 -5 -1 -9 8 -9 19 -1 40 9 25 8 27 -4 12 -17 -23 -30 -23
-18 -2 12 21 -10 67 -45 92 -16 12 -25 28 -25 45 0 19 -3 23 -12 14 -10 -8 -8
-20 7 -50 12 -26 22 -36 26 -28 5 7 8 0 8 -17 0 -15 19 -60 44 -101 24 -40 54
-89 66 -109 12 -20 27 -36 34 -34 6 2 9 -3 6 -11 -8 -22 215 -326 235 -319 4
1 7 -2 6 -7 -2 -4 12 -27 31 -51 33 -42 33 -42 45 -18 9 18 21 24 58 26 66 4
78 -16 78 -133 l0 -90 121 -128 c283 -298 529 -457 906 -586 315 -108 635
-145 1248 -146 473 0 652 20 955 105 186 53 476 171 465 190 -3 5 1 7 9 4 8
-3 41 9 73 26 32 18 95 52 141 77 48 26 79 49 75 55 -3 7 -1 8 5 4 7 -4 52 18
102 48 49 31 92 56 95 56 14 0 317 213 419 294 124 100 287 255 409 389 57 64
68 81 56 89 -11 8 -11 9 3 5 11 -4 36 17 79 66 35 40 90 100 123 135 33 34 56
62 52 62 -4 0 6 12 23 26 17 14 28 31 24 36 -3 6 -1 8 4 5 14 -9 37 19 27 34
-4 7 -3 9 3 6 6 -4 21 5 33 18 13 14 20 25 15 25 -5 0 -1 6 10 13 10 8 15 19
11 25 -4 6 -3 20 3 29 6 12 5 28 -2 46 l-12 27 -35 -21 c-20 -13 -30 -24 -23
-26 7 -3 20 3 29 11 20 20 41 22 25 2 -16 -18 -71 -38 -71 -25 0 5 -4 9 -9 9
-4 0 -8 -13 -7 -30 1 -35 9 -37 36 -10 16 16 22 17 26 7 2 -7 -20 -40 -51 -73
-52 -56 -70 -84 -42 -68 8 6 8 3 -1 -9 -8 -9 -11 -20 -8 -25 3 -5 -1 -9 -9 -9
-11 0 -12 5 -3 21 10 18 6 17 -25 -7 -19 -15 -43 -27 -52 -27 -9 0 -15 -6 -12
-12 2 -7 12 -12 21 -12 14 2 15 -1 4 -13 -8 -10 -14 -11 -16 -4 -2 6 -8 9 -13
5 -5 -3 -9 -1 -9 4 0 6 -16 -6 -35 -26 -25 -24 -33 -38 -25 -45 5 -6 10 -16
10 -21 0 -6 -5 -3 -11 7 -12 21 -29 22 -29 2 0 -8 -3 -14 -7 -13 -14 4 -53
-13 -53 -23 0 -5 -18 -9 -40 -9 -36 0 -40 -3 -40 -25 0 -29 -43 -75 -71 -75
-11 0 -32 -13 -46 -30 -21 -26 -32 -30 -74 -30 -48 0 -49 -1 -49 -30 0 -28 -2
-30 -40 -30 -22 0 -40 -4 -40 -10 0 -5 -18 -10 -40 -10 -22 0 -40 -4 -40 -10
0 -5 -18 -10 -39 -10 -29 0 -41 5 -44 18 -2 9 -2 -9 1 -40 l5 -58 -42 0 -41 0
0 -40 0 -40 -50 0 -50 0 0 -40 c0 -22 -4 -40 -10 -40 -11 0 -50 -36 -50 -46 0
-10 -28 -34 -39 -34 -6 0 -11 -4 -11 -10 0 -5 -14 -17 -30 -25 -17 -9 -36 -27
-42 -40 -6 -14 -16 -25 -21 -25 -5 0 -23 -13 -39 -30 -15 -16 -35 -30 -43 -30
-8 0 -15 -5 -15 -10 0 -6 -18 -17 -39 -26 -22 -8 -42 -22 -45 -30 -3 -8 -15
-14 -26 -14 -11 0 -20 -4 -20 -10 0 -5 -7 -10 -15 -10 -8 0 -15 -7 -15 -15 0
-11 -11 -15 -40 -15 -29 0 -40 -4 -40 -15 0 -9 -9 -15 -25 -15 -14 0 -25 -4
-25 -10 0 -5 -7 -10 -15 -10 -8 0 -15 5 -15 10 0 6 -18 10 -40 10 -30 0 -40
-4 -40 -16 0 -17 -22 -14 -28 4 -2 7 3 12 12 12 12 0 16 10 16 40 0 38 -2 40
-30 40 l-30 0 0 69 0 69 -54 4 c-37 2 -52 -1 -49 -8 5 -15 -63 -24 -97 -13
-19 6 -12 8 30 10 30 1 45 4 34 6 -24 5 -550 -23 -659 -34 l-70 -8 50 -6 c49
-6 49 -6 -17 -7 -59 -2 -68 -4 -68 -21 0 -15 -10 -19 -52 -24 -59 -5 -87 3
-48 15 24 7 23 7 -4 5 -38 -3 -45 -24 -12 -33 14 -3 26 -11 26 -16 0 -9 -24
-8 -70 5 -8 2 -12 2 -7 0 4 -3 7 -12 7 -20 0 -13 -14 -15 -102 -11 -74 4 -136
0 -218 -13 -194 -32 -549 -23 -800 20 -221 38 -364 93 -580 224 -63 38 -124
75 -135 81 -11 6 -34 21 -50 32 -25 18 -32 20 -43 8 -18 -20 -38 -18 -22 1 18
22 -2 40 -43 40 -24 0 -32 4 -31 17 2 24 -53 47 -100 40 -37 -4 -39 -4 -34 22
3 14 1 26 -4 26 -5 0 -27 9 -50 20 -24 11 -52 18 -67 15 -22 -5 -23 -4 -6 4
20 10 19 10 -2 17 -13 3 -23 9 -23 13 0 3 -27 17 -60 31 -33 14 -60 28 -60 33
0 4 -5 7 -10 7 -15 0 -138 78 -195 124 -83 67 -204 187 -263 262 -62 77 -65
82 -116 164 -49 78 -71 103 -44 50z m5978 -104 c0 -2 -8 -10 -17 -17 -16 -13
-17 -12 -4 4 13 16 21 21 21 13z m-6000 -82 c0 -8 -19 -13 -24 -6 -3 5 1 9 9
9 8 0 15 -2 15 -3z m170 -54 c0 -5 -2 -10 -4 -10 -3 0 -8 5 -11 10 -3 6 -1 10
4 10 6 0 11 -4 11 -10z m-65 -50 c10 -11 13 -20 7 -20 -6 0 -16 9 -22 20 -6
11 -9 20 -7 20 2 0 12 -9 22 -20z m5723 -20 c-22 -30 -35 -41 -22 -17 9 16 36
47 41 47 2 0 -6 -13 -19 -30z m-5614 -16 c3 -8 2 -12 -4 -9 -6 3 -10 10 -10
16 0 14 7 11 14 -7z m5566 -29 c0 -1 -6 -7 -13 -13 -10 -8 -13 -6 -13 7 0 11
6 17 13 14 7 -3 13 -6 13 -8z m-5591 -87 c-5 -10 -7 -24 -3 -31 4 -7 3 -8 -2
-4 -14 13 -12 54 3 54 8 0 9 -5 2 -19z m5411 -71 c0 -2 -10 -12 -22 -23 l-23
-19 19 23 c18 21 26 27 26 19z m-332 -159 c-6 -18 -28 -21 -28 -4 0 9 7 16 16
16 9 0 14 -5 12 -12z m172 -62 c0 -2 -8 -10 -17 -17 -16 -13 -17 -12 -4 4 13
16 21 21 21 13z m-4424 -71 c18 -9 23 -15 12 -15 -24 0 -48 11 -48 21 0 12 3
12 36 -6z m87 -75 c-10 -9 -20 -13 -21 -8 -6 13 19 39 30 32 5 -3 1 -14 -9
-24z m85 -28 c2 -7 -3 -12 -12 -12 -9 0 -16 7 -16 16 0 17 22 14 28 -4z m2597
-202 c-11 -5 -38 -8 -60 -8 l-40 1 45 7 c64 10 78 10 55 0z m255 -10 c0 -5
-12 -10 -27 -9 l-28 1 25 8 c14 4 26 8 28 9 1 1 2 -3 2 -9z m-461 -9 c7 -5
-17 -7 -60 -4 -99 6 -109 11 -24 12 39 0 76 -3 84 -8z m349 2 c-10 -2 -26 -2
-35 0 -10 3 -2 5 17 5 19 0 27 -2 18 -5z m112 -109 c0 -17 -22 -14 -28 4 -2 7
3 12 12 12 9 0 16 -7 16 -16z"/>
<path d="M8896 3240 c-17 -6 -18 -7 -3 -13 9 -3 19 -2 23 4 9 15 2 18 -20 9z"/>
<path d="M8835 3211 c-6 -5 -19 -11 -30 -14 -19 -4 -19 -5 1 -6 12 0 27 6 34
14 14 16 10 20 -5 6z"/>
<path d="M3050 3178 c0 -9 5 -20 10 -23 13 -8 13 5 0 25 -8 13 -10 13 -10 -2z"/>
<path d="M8142 2760 c-7 -11 -8 -20 -3 -20 9 0 24 30 18 36 -1 2 -8 -6 -15
-16z"/>
<path d="M8100 2720 c0 -5 5 -10 10 -10 6 0 10 5 10 10 0 6 -4 10 -10 10 -5 0
-10 -4 -10 -10z"/>
<path d="M8060 2675 c-8 -9 -8 -15 -2 -15 12 0 26 19 19 26 -2 2 -10 -2 -17
-11z"/>
<path d="M8025 2640 c-3 -5 -1 -10 4 -10 6 0 11 5 11 10 0 6 -2 10 -4 10 -3 0
-8 -4 -11 -10z"/>
<path d="M7964 2586 c-16 -14 -24 -25 -19 -25 14 0 59 38 53 45 -3 3 -19 -6
-34 -20z"/>
<path d="M7906 2535 c-3 -8 -1 -15 4 -15 6 0 10 7 10 15 0 8 -2 15 -4 15 -2 0
-6 -7 -10 -15z"/>
<path d="M3935 2510 c3 -5 13 -10 21 -10 8 0 12 5 9 10 -3 6 -13 10 -21 10 -8
0 -12 -4 -9 -10z"/>
<path d="M7865 2510 c-3 -5 -2 -10 4 -10 5 0 13 5 16 10 3 6 2 10 -4 10 -5 0
-13 -4 -16 -10z"/>
<path d="M3473 2442 c-3 -14 -10 -19 -21 -15 -13 4 -14 3 -6 -6 13 -14 40 -5
48 14 3 8 1 17 -5 21 -6 3 -13 -3 -16 -14z"/>
<path d="M7665 2400 c-3 -5 -1 -10 4 -10 6 0 11 5 11 10 0 6 -2 10 -4 10 -3 0
-8 -4 -11 -10z"/>
<path d="M6482 2368 c-17 -17 -15 -48 3 -48 10 0 15 10 15 30 0 34 -1 35 -18
18z"/>
<path d="M7288 2253 c7 -3 16 -2 19 1 4 3 -2 6 -13 5 -11 0 -14 -3 -6 -6z"/>
<path d="M7175 2230 c-19 -8 -19 -9 3 -9 12 -1 22 4 22 9 0 6 -1 10 -2 9 -2 0
-12 -4 -23 -9z"/>
<path d="M5985 2080 c-27 -10 -41 -18 -30 -18 11 -1 38 8 60 18 51 24 34 24
-30 0z"/>
<path d="M6028 2063 c7 -3 16 -2 19 1 4 3 -2 6 -13 5 -11 0 -14 -3 -6 -6z"/>
<path d="M0 445 l0 -445 6500 0 6500 0 0 445 0 445 -6500 0 -6500 0 0 -445z
m780 55 l0 -200 -35 0 -35 0 0 200 0 200 35 0 35 0 0 -200z m-115 105 c24 -23
25 -30 25 -149 0 -68 3 -131 6 -140 5 -13 -1 -16 -30 -16 -27 0 -36 4 -36 17
0 15 -2 14 -20 -2 -22 -20 -63 -23 -85 -5 -8 6 -17 28 -21 47 -9 50 15 94 70
129 38 23 46 34 44 54 -4 31 -32 33 -36 3 -3 -19 -10 -23 -38 -23 -31 0 -34 2
-34 30 0 46 39 80 90 80 30 0 47 -6 65 -25z m273 19 c41 -11 52 -51 52 -194
l0 -130 -29 0 c-16 0 -31 6 -34 13 -4 10 -7 10 -18 0 -18 -18 -74 -16 -93 3
-21 20 -21 93 -1 122 9 12 36 36 61 53 34 23 44 36 42 52 -4 29 -30 28 -43 0
-7 -17 -18 -23 -44 -23 -32 0 -33 1 -27 33 11 59 66 89 134 71z m234 -13 c12
-19 12 -19 36 0 30 23 55 24 76 3 13 -13 16 -42 16 -165 l0 -149 -30 0 -30 0
0 113 c0 123 -6 157 -25 157 -21 0 -25 -25 -25 -151 l0 -119 -35 0 -34 0 -3
133 c-3 109 -6 132 -18 132 -12 0 -15 -23 -18 -132 l-3 -133 -34 0 -35 0 0
160 0 160 35 0 c21 0 35 -5 35 -12 0 -8 6 -6 17 5 23 23 60 22 75 -2z m220
-121 c3 -121 4 -125 26 -128 22 -3 22 -3 22 127 0 80 4 131 10 132 59 7 55 20
58 -166 2 -94 0 -184 -3 -201 -7 -39 -38 -54 -110 -54 -54 0 -55 0 -55 30 0
27 3 30 34 30 49 0 66 9 66 35 0 23 -1 23 -30 9 -36 -18 -66 -6 -80 32 -6 14
-10 83 -10 154 l0 129 28 3 c15 2 30 1 34 -2 4 -3 9 -62 10 -130z m9883 90 c0
-27 -4 -50 -10 -50 -5 0 -10 23 -10 50 0 28 5 50 10 50 6 0 10 -22 10 -50z
m470 0 c0 -27 -4 -50 -10 -50 -5 0 -10 23 -10 50 0 28 5 50 10 50 6 0 10 -22
10 -50z m93 38 c7 -7 12 -24 12 -38 0 -34 -17 -50 -52 -50 -27 0 -28 2 -28 50
0 48 1 50 28 50 15 0 33 -5 40 -12z m160 -14 c2 -11 -4 -27 -13 -34 -21 -17
-19 -28 8 -33 16 -3 13 -5 -10 -6 -38 -1 -41 8 -13 34 27 25 27 59 0 52 -11
-3 -17 -1 -14 4 10 17 39 5 42 -17z m75 19 c-13 -2 -23 -11 -23 -19 0 -8 10
-15 23 -15 l22 -2 -22 -4 c-14 -3 -23 -12 -23 -23 0 -11 9 -20 23 -23 16 -3
13 -5 -10 -6 l-33 -1 0 50 0 50 33 -1 c23 -1 26 -3 10 -6z m52 -13 c3 -11 10
-20 15 -20 5 0 12 9 15 20 3 11 15 20 25 20 10 0 22 -9 25 -20 3 -11 10 -20
15 -20 5 0 12 9 15 20 3 11 10 20 15 20 5 0 2 -12 -6 -27 -7 -16 -14 -38 -14
-50 0 -13 -4 -23 -10 -23 -5 0 -10 9 -10 21 0 17 -14 54 -26 68 -9 10 -33 -36
-34 -61 0 -16 -4 -28 -10 -28 -5 0 -10 9 -10 20 0 12 -7 34 -15 50 -9 17 -11
30 -6 30 5 0 13 -9 16 -20z m175 8 l-25 -10 23 -9 c28 -11 38 -35 22 -54 -14
-16 -50 -21 -50 -6 0 5 8 7 19 4 10 -3 22 0 25 5 10 17 -5 42 -25 42 -12 0
-19 7 -19 20 0 15 6 20 28 19 l27 0 -25 -11z m99 -10 c-2 -13 0 -29 5 -36 11
-18 -12 -42 -38 -41 -20 2 -20 2 2 6 27 5 31 42 5 44 -17 1 -17 2 0 6 9 2 17
11 17 20 0 10 -6 14 -20 10 -11 -3 -18 -1 -14 4 3 5 14 9 25 9 15 0 20 -6 18
-22z m69 -30 c-1 -51 -2 -51 -5 -10 -2 23 -9 42 -14 42 -6 0 -7 5 -4 10 15 24
25 6 23 -42z m-1061 -13 l1 -40 -6 35 c-4 22 -13 35 -22 35 -9 0 -17 -13 -21
-35 l-6 -35 -2 38 c-1 45 -27 52 -37 10 -10 -48 -12 -49 -13 -7 l-1 41 53 -1
52 -1 2 -40z m81 4 c3 -34 1 -36 -25 -35 -35 1 -46 35 -14 43 26 7 27 20 4 27
-11 3 -7 4 7 3 21 -2 25 -8 28 -38z m82 29 c3 -4 3 -29 0 -55 -4 -42 -8 -48
-30 -50 -25 -3 -25 -3 -2 7 12 5 22 14 22 19 0 5 -10 11 -22 13 -24 3 -35 35
-24 64 6 15 46 16 56 2z m88 -10 c3 -13 -3 -18 -22 -18 -32 0 -34 -17 -3 -30
22 -10 22 -10 -3 -7 -26 2 -38 32 -26 63 8 21 50 14 54 -8z m232 12 c0 -5 -4
-10 -10 -10 -5 0 -10 5 -10 10 0 6 5 10 10 10 6 0 10 -4 10 -10z m0 -60 c0 -5
-4 -10 -10 -10 -5 0 -10 5 -10 10 0 6 5 10 10 10 6 0 10 -4 10 -10z m-130
-190 c0 -47 -3 -60 -15 -60 -12 0 -15 13 -15 60 0 47 3 60 15 60 12 0 15 -13
15 -60z m-580 10 c0 -11 5 -20 10 -20 6 0 10 9 10 21 0 29 32 21 41 -11 l6
-25 8 28 c7 28 25 38 25 13 0 -27 -22 -76 -35 -76 -7 0 -16 15 -20 33 l-8 32
-6 -30 c-9 -44 -33 -37 -47 13 -11 35 -11 42 2 42 8 0 14 -9 14 -20z m140 0
c0 -11 5 -20 10 -20 6 0 10 9 10 21 0 29 32 21 41 -11 l6 -25 8 28 c11 42 28
33 20 -10 -8 -46 -12 -53 -29 -53 -8 0 -17 15 -21 33 l-8 32 -6 -30 c-9 -44
-33 -37 -47 13 -11 35 -11 42 2 42 8 0 14 -9 14 -20z m140 0 c0 -11 5 -20 10
-20 6 0 10 9 10 21 0 29 32 21 41 -11 l6 -25 8 28 c7 28 25 38 25 13 0 -27
-22 -76 -35 -76 -7 0 -16 15 -20 33 l-7 32 -10 -33 c-12 -43 -29 -36 -45 16
-10 35 -9 42 3 42 8 0 14 -9 14 -20z m235 8 c2 -7 6 -27 8 -44 5 -30 4 -31
-32 -30 -31 1 -36 4 -36 26 0 17 7 26 25 31 24 7 24 7 3 8 -13 1 -23 6 -23 11
0 15 50 12 55 -2z m153 -5 c5 -10 9 -29 7 -43 -1 -20 -7 -24 -36 -25 -30 0
-34 3 -34 25 0 17 7 26 25 31 24 7 24 7 3 8 -31 1 -29 21 2 21 13 0 28 -8 33
-17z m162 -4 c12 -22 7 -62 -8 -67 -8 -2 -12 9 -12 32 0 25 -4 36 -15 36 -10
0 -15 -11 -15 -35 0 -44 -18 -46 -22 -3 -4 46 -28 49 -28 4 0 -25 -4 -36 -15
-36 -11 0 -15 12 -15 44 l0 43 60 0 c48 0 63 -4 70 -18z m55 -6 l8 -28 10 28
c13 33 42 38 31 5 -19 -61 -45 -108 -59 -108 -18 0 -20 17 -3 22 10 4 9 16 -4
56 -13 41 -13 52 -3 52 7 0 16 -12 20 -27z m175 18 c0 -5 -9 -11 -20 -14 -11
-3 -20 -13 -20 -22 0 -9 9 -19 20 -22 23 -6 27 -23 6 -23 -31 0 -46 13 -46 39
0 15 5 32 12 39 14 14 48 16 48 3z m90 -5 c28 -35 -11 -93 -47 -70 -36 22 -23
84 17 84 10 0 23 -7 30 -14z m162 -21 c9 -33 4 -55 -12 -55 -5 0 -10 16 -10
35 0 24 -5 35 -15 35 -10 0 -15 -11 -15 -35 0 -44 -18 -46 -22 -3 -4 46 -28
49 -28 4 0 -25 -4 -36 -15 -36 -11 0 -15 12 -15 44 l0 44 62 -2 c60 -1 62 -2
70 -31z m-891 -48 c-13 -13 -26 -3 -16 12 3 6 11 8 17 5 6 -4 6 -10 -1 -17z
m550 0 c-13 -13 -26 -3 -16 12 3 6 11 8 17 5 6 -4 6 -10 -1 -17z"/>
<path d="M592 427 c-26 -27 -28 -55 -7 -63 24 -9 42 12 43 51 2 41 -6 44 -36
12z"/>
<path d="M893 438 c-30 -32 -31 -78 -3 -78 25 0 32 17 28 65 l-3 37 -22 -24z"/>
<path d="M11790 580 c0 -33 3 -41 16 -38 26 5 41 35 28 56 -6 9 -19 18 -28 20
-13 3 -16 -5 -16 -38z"/>
<path d="M11440 555 c0 -8 6 -15 14 -15 8 0 16 7 20 15 4 10 -1 15 -14 15 -11
0 -20 -7 -20 -15z"/>
<path d="M11524 586 c-8 -22 3 -49 19 -43 6 2 12 14 12 27 0 27 -22 39 -31 16z"/>
<path d="M11615 590 c-3 -5 3 -10 15 -10 12 0 18 5 15 10 -3 6 -10 10 -15 10
-5 0 -12 -4 -15 -10z"/>
<path d="M11657 333 c-12 -11 -8 -23 8 -23 8 0 15 7 15 15 0 16 -12 20 -23 8z"/>
<path d="M11807 333 c-12 -11 -8 -23 8 -23 8 0 15 7 15 15 0 16 -12 20 -23 8z"/>
<path d="M12283 344 c-8 -21 13 -42 28 -27 13 13 5 43 -11 43 -6 0 -13 -7 -17
-16z"/>
</g>
</svg>
